<svg xmlns="http://www.w3.org/2000/svg" width="316" height="195" viewBox="0 0 316 195">
  <g id="Building" transform="translate(-30 -75)">
    <rect id="Rectangle_1177" data-name="Rectangle 1177" width="316" height="195" rx="20" transform="translate(30 75)" fill="#edfbf9"/>
    <g id="undraw_building_re_xfcm" transform="translate(83 92.719)">
      <circle id="Ellipse_115" data-name="Ellipse 115" cx="13.24" cy="13.24" r="13.24" transform="translate(16.607 67.649)" fill="#2cd3c2"/>
      <path id="Path_1931" data-name="Path 1931" d="M526.113,133.957H485.772V110.58a1.864,1.864,0,0,1,1.862-1.862h36.618a1.864,1.864,0,0,1,1.862,1.862Zm-39.928-.414H525.7V110.58a1.45,1.45,0,0,0-1.448-1.448H487.634a1.45,1.45,0,0,0-1.448,1.448Z" transform="translate(-404.929 -99.616)" fill="#3f3d56"/>
      <path id="Path_1933" data-name="Path 1933" d="M525.254,74.234h-8.482V65.752a1.036,1.036,0,0,1,1.034-1.034h6.413a1.036,1.036,0,0,1,1.034,1.034Zm-8.068-.414h7.655V65.752a.621.621,0,0,0-.621-.621h-6.413a.621.621,0,0,0-.621.621Z" transform="translate(-429.516 -64.718)" fill="#3f3d56"/>
      <path id="Path_1934" data-name="Path 1934" d="M838.838,483.68c-.082,0-.163,0-.245,0a21,21,0,0,1-13.839-5.409q-.211-.192-.418-.389l-.064-.061V438.17l.02-.042c.137-.29.276-.576.415-.863,4.3-8.736,9.322-13.547,14.132-13.547,6.937,0,12.316,9.515,14.906,15.187,3.6,7.887,6.115,17.66,6.115,23.766a21.014,21.014,0,0,1-20.781,21.007C839,483.68,838.919,483.68,838.838,483.68Zm-14.153-6.039q.172.162.346.321a20.591,20.591,0,0,0,13.569,5.3c.084,0,.163,0,.243,0s.152,0,.227,0a20.669,20.669,0,0,0,20.375-20.593c0-6.053-2.5-15.756-6.078-23.595-2.548-5.581-7.824-14.945-14.529-14.945-4.644,0-9.531,4.729-13.76,13.315-.131.27-.263.541-.392.816Z" transform="translate(-673.401 -349.449)" fill="#3f3d56"/>
      <path id="Path_1935" data-name="Path 1935" d="M893.764,646.7a.238.238,0,0,1-.238-.238V597.875a.238.238,0,1,1,.476,0v48.59A.238.238,0,0,1,893.764,646.7Z" transform="translate(-728.328 -487.387)" fill="#ccc"/>
      <path id="Path_1936" data-name="Path 1936" d="M296.765,646.7a.238.238,0,0,1-.238-.238V597.875a.238.238,0,1,1,.476,0v48.59a.238.238,0,0,1-.238.238Z" transform="translate(-254.835 -487.387)" fill="#ccc"/>
      <path id="Path_1937" data-name="Path 1937" d="M847.872,587.919a.237.237,0,0,1-.18-.082l-11.971-13.805a.238.238,0,1,1,.36-.312l11.971,13.805a.238.238,0,0,1-.18.394Z" transform="translate(-682.435 -468.353)" fill="#ccc"/>
      <path id="Path_1938" data-name="Path 1938" d="M893.764,653.277a.238.238,0,0,1-.168-.406l6.8-6.8a.238.238,0,0,1,.337.337l-6.8,6.8A.237.237,0,0,1,893.764,653.277Z" transform="translate(-728.328 -525.744)" fill="#ccc"/>
      <path id="Path_1939" data-name="Path 1939" d="M932.911,800.383H915.119v-.207a8.9,8.9,0,1,1,17.793,0Zm-17.376-.414H932.5a8.483,8.483,0,0,0-16.96,0Z" transform="translate(-745.453 -640.969)" fill="#3f3d56"/>
      <path id="Path_1940" data-name="Path 1940" d="M946.416,809.875a.235.235,0,0,0-.235.235V812.6l-2.43-2.086a.235.235,0,1,0-.306.356l2.736,2.349v1.466a.235.235,0,0,0,.47,0V810.11a.235.235,0,0,0-.235-.235Z" transform="translate(-767.854 -655.717)" fill="#3f3d56"/>
      <path id="Path_1941" data-name="Path 1941" d="M211.912,800.383H194.119v-.207a8.9,8.9,0,1,1,17.793,0Zm-17.376-.414H211.5a8.483,8.483,0,0,0-16.96,0Z" transform="translate(-173.613 -640.969)" fill="#3f3d56"/>
      <path id="Path_1942" data-name="Path 1942" d="M225.416,809.875a.235.235,0,0,0-.235.235V812.6l-2.43-2.086a.235.235,0,1,0-.306.356l2.736,2.349v1.466a.235.235,0,0,0,.47,0V810.11a.235.235,0,0,0-.235-.235Z" transform="translate(-196.014 -655.717)" fill="#3f3d56"/>
      <path id="Path_1943" data-name="Path 1943" d="M218.085,483.68c-.082,0-.163,0-.245,0a21.015,21.015,0,0,1-20.778-21.006c0-6.106,2.515-15.88,6.116-23.766,2.59-5.672,7.97-15.187,14.907-15.187,2.858,0,5.735,1.629,8.553,4.841.14.158.28.322.418.489l.047.057V481.65l-.117.056c-.139.067-.281.131-.422.192a20.814,20.814,0,0,1-8.239,1.78C218.248,483.68,218.165,483.68,218.085,483.68Zm0-59.548c-6.706,0-11.983,9.364-14.531,14.945-3.579,7.839-6.078,17.541-6.078,23.595a20.671,20.671,0,0,0,20.372,20.593c.084,0,.162,0,.243,0s.152,0,.227,0a20.409,20.409,0,0,0,8.081-1.745c.1-.042.195-.085.291-.13V429.255c-.12-.144-.241-.284-.362-.422C223.591,425.713,220.818,424.132,218.085,424.132Z" transform="translate(-175.947 -349.449)" fill="#3f3d56"/>
      <path id="Path_1944" data-name="Path 1944" d="M251.872,587.919a.237.237,0,0,1-.18-.082l-11.971-13.805a.238.238,0,1,1,.36-.312l11.971,13.805a.238.238,0,0,1-.18.394Z" transform="translate(-209.735 -468.353)" fill="#ccc"/>
      <path id="Path_1945" data-name="Path 1945" d="M297.765,653.277a.238.238,0,0,1-.168-.406l6.8-6.8a.238.238,0,0,1,.337.337l-6.8,6.8A.237.237,0,0,1,297.765,653.277Z" transform="translate(-255.628 -525.744)" fill="#ccc"/>
      <path id="Path_1946" data-name="Path 1946" d="M350.359,230.787l.153.3a.915.915,0,0,1,.1.422v8.172h7.241v-8.172a.915.915,0,0,1,.1-.422l.153-.3Zm7.084.724v7.758H351.03v-7.758a1.3,1.3,0,0,0-.037-.31h6.488a1.3,1.3,0,0,0-.037.31Zm2.019-.724.153.3a.915.915,0,0,1,.1.422v8.172h7.241v-8.172a.915.915,0,0,1,.1-.422l.153-.3Zm7.084.724v7.758h-6.413v-7.758a1.3,1.3,0,0,0-.037-.31h6.488a1.3,1.3,0,0,0-.037.31Zm2.019-.724.153.3a.915.915,0,0,1,.1.422v8.172h7.241v-8.172a.915.915,0,0,1,.1-.422l.153-.3Zm7.084.724v7.758h-6.413v-7.758a1.3,1.3,0,0,0-.037-.31h6.488a1.3,1.3,0,0,0-.037.31Zm2.019-.724.153.3a.915.915,0,0,1,.1.422v8.172h7.241v-8.172a.915.915,0,0,1,.1-.422l.153-.3Zm7.084.724v7.758h-6.413v-7.758a1.3,1.3,0,0,0-.037-.31h6.488a1.3,1.3,0,0,0-.037.31Zm2.019-.724.153.3a.915.915,0,0,1,.1.422v8.172h7.241v-8.172a.915.915,0,0,1,.1-.422l.153-.3Zm7.084.724v7.758H387.44v-7.758a1.3,1.3,0,0,0-.037-.31h6.488a1.3,1.3,0,0,0-.037.31Zm2.019-.724.153.3a.915.915,0,0,1,.1.422v8.172h7.241v-8.172a.915.915,0,0,1,.1-.422l.153-.3Zm7.084.724v7.758h-6.413v-7.758a1.3,1.3,0,0,0-.037-.31h6.488a1.3,1.3,0,0,0-.037.31Zm2.019-.724.153.3a.915.915,0,0,1,.1.422v8.172h7.241v-8.172a.915.915,0,0,1,.1-.422l.153-.3Zm7.084.724v7.758h-6.413v-7.758a1.3,1.3,0,0,0-.037-.31H412.1a1.3,1.3,0,0,0-.037.31Zm2.019-.724.153.3a.915.915,0,0,1,.1.422v8.172h7.241v-8.172a.915.915,0,0,1,.1-.422l.153-.3Zm7.084.724v7.758h-6.413v-7.758a1.3,1.3,0,0,0-.037-.31H421.2a1.3,1.3,0,0,0-.037.31Zm2.019-.724.153.3a.915.915,0,0,1,.1.422v8.172h7.241v-8.172a.915.915,0,0,1,.1-.422l.153-.3Zm7.084.724v7.758h-6.413v-7.758a1.3,1.3,0,0,0-.037-.31H430.3a1.3,1.3,0,0,0-.037.31Zm-7.084-.724.153.3a.915.915,0,0,1,.1.422v8.172h7.241v-8.172a.915.915,0,0,1,.1-.422l.153-.3Zm7.084.724v7.758h-6.413v-7.758a1.3,1.3,0,0,0-.037-.31H430.3a1.3,1.3,0,0,0-.037.31Zm-16.186-.724.153.3a.915.915,0,0,1,.1.422v8.172h7.241v-8.172a.915.915,0,0,1,.1-.422l.153-.3Zm7.084.724v7.758h-6.413v-7.758a1.3,1.3,0,0,0-.037-.31H421.2a1.3,1.3,0,0,0-.037.31Zm-16.186-.724.153.3a.915.915,0,0,1,.1.422v8.172h7.241v-8.172a.915.915,0,0,1,.1-.422l.153-.3Zm7.084.724v7.758h-6.413v-7.758a1.3,1.3,0,0,0-.037-.31H412.1a1.3,1.3,0,0,0-.037.31Zm-16.186-.724.153.3a.915.915,0,0,1,.1.422v8.172h7.241v-8.172a.915.915,0,0,1,.1-.422l.153-.3Zm7.084.724v7.758h-6.413v-7.758a1.3,1.3,0,0,0-.037-.31h6.488a1.3,1.3,0,0,0-.037.31Zm-16.186-.724.153.3a.915.915,0,0,1,.1.422v8.172h7.241v-8.172a.915.915,0,0,1,.1-.422l.153-.3Zm7.084.724v7.758H387.44v-7.758a1.3,1.3,0,0,0-.037-.31h6.488a1.3,1.3,0,0,0-.037.31Zm-16.186-.724.153.3a.915.915,0,0,1,.1.422v8.172h7.241v-8.172a.915.915,0,0,1,.1-.422l.153-.3Zm7.084.724v7.758h-6.413v-7.758a1.3,1.3,0,0,0-.037-.31h6.488a1.3,1.3,0,0,0-.037.31Zm-16.186-.724.153.3a.915.915,0,0,1,.1.422v8.172h7.241v-8.172a.915.915,0,0,1,.1-.422l.153-.3Zm7.084.724v7.758h-6.413v-7.758a1.3,1.3,0,0,0-.037-.31h6.488a1.3,1.3,0,0,0-.037.31Zm-16.186-.724.153.3a.915.915,0,0,1,.1.422v8.172h7.241v-8.172a.915.915,0,0,1,.1-.422l.153-.3Zm7.084.724v7.758h-6.413v-7.758a1.3,1.3,0,0,0-.037-.31h6.488a1.3,1.3,0,0,0-.037.31Zm-16.186-.724.153.3a.915.915,0,0,1,.1.422v8.172h7.241v-8.172a.915.915,0,0,1,.1-.422l.153-.3Zm7.084.724v7.758h-6.413v-7.758a1.3,1.3,0,0,0-.037-.31h6.488a1.3,1.3,0,0,0-.037.31Zm65.738-.724.153.3a.915.915,0,0,1,.1.422v8.172h7.241v-8.172a.915.915,0,0,1,.1-.422l.153-.3Zm7.084.724v7.758h-6.413v-7.758a1.3,1.3,0,0,0-.037-.31H430.3a1.3,1.3,0,0,0-.037.31Zm-16.186-.724.153.3a.915.915,0,0,1,.1.422v8.172h7.241v-8.172a.915.915,0,0,1,.1-.422l.153-.3Zm7.084.724v7.758h-6.413v-7.758a1.3,1.3,0,0,0-.037-.31H421.2a1.3,1.3,0,0,0-.037.31Zm-16.186-.724.153.3a.915.915,0,0,1,.1.422v8.172h7.241v-8.172a.915.915,0,0,1,.1-.422l.153-.3Zm7.084.724v7.758h-6.413v-7.758a1.3,1.3,0,0,0-.037-.31H412.1a1.3,1.3,0,0,0-.037.31Zm-16.186-.724.153.3a.915.915,0,0,1,.1.422v8.172h7.241v-8.172a.915.915,0,0,1,.1-.422l.153-.3Zm7.084.724v7.758h-6.413v-7.758a1.3,1.3,0,0,0-.037-.31h6.488a1.3,1.3,0,0,0-.037.31Zm-16.186-.724.153.3a.915.915,0,0,1,.1.422v8.172h7.241v-8.172a.915.915,0,0,1,.1-.422l.153-.3Zm7.084.724v7.758H387.44v-7.758a1.3,1.3,0,0,0-.037-.31h6.488a1.3,1.3,0,0,0-.037.31Zm-16.186-.724.153.3a.915.915,0,0,1,.1.422v8.172h7.241v-8.172a.915.915,0,0,1,.1-.422l.153-.3Zm7.084.724v7.758h-6.413v-7.758a1.3,1.3,0,0,0-.037-.31h6.488a1.3,1.3,0,0,0-.037.31Zm-16.186-.724.153.3a.915.915,0,0,1,.1.422v8.172h7.241v-8.172a.915.915,0,0,1,.1-.422l.153-.3Zm7.084.724v7.758h-6.413v-7.758a1.3,1.3,0,0,0-.037-.31h6.488a1.3,1.3,0,0,0-.037.31Zm-16.186-.724.153.3a.915.915,0,0,1,.1.422v8.172h7.241v-8.172a.915.915,0,0,1,.1-.422l.153-.3Zm7.084.724v7.758h-6.413v-7.758a1.3,1.3,0,0,0-.037-.31h6.488a1.3,1.3,0,0,0-.037.31Zm-16.186-.724.153.3a.915.915,0,0,1,.1.422v8.172h7.241v-8.172a.915.915,0,0,1,.1-.422l.153-.3Zm7.084.724v7.758H351.03v-7.758a1.3,1.3,0,0,0-.037-.31h6.488a1.3,1.3,0,0,0-.037.31Zm65.738-.724.153.3a.915.915,0,0,1,.1.422v8.172h7.241v-8.172a.915.915,0,0,1,.1-.422l.153-.3Zm7.084.724v7.758h-6.413v-7.758a1.3,1.3,0,0,0-.037-.31H430.3a1.3,1.3,0,0,0-.037.31Zm-16.186-.724.153.3a.915.915,0,0,1,.1.422v8.172h7.241v-8.172a.915.915,0,0,1,.1-.422l.153-.3Zm7.084.724v7.758h-6.413v-7.758a1.3,1.3,0,0,0-.037-.31H421.2a1.3,1.3,0,0,0-.037.31Zm-16.186-.724.153.3a.915.915,0,0,1,.1.422v8.172h7.241v-8.172a.915.915,0,0,1,.1-.422l.153-.3Zm7.084.724v7.758h-6.413v-7.758a1.3,1.3,0,0,0-.037-.31H412.1a1.3,1.3,0,0,0-.037.31Zm-16.186-.724.153.3a.915.915,0,0,1,.1.422v8.172h7.241v-8.172a.915.915,0,0,1,.1-.422l.153-.3Zm7.084.724v7.758h-6.413v-7.758a1.3,1.3,0,0,0-.037-.31h6.488a1.3,1.3,0,0,0-.037.31Zm-16.186-.724.153.3a.915.915,0,0,1,.1.422v8.172h7.241v-8.172a.915.915,0,0,1,.1-.422l.153-.3Zm7.084.724v7.758H387.44v-7.758a1.3,1.3,0,0,0-.037-.31h6.488a1.3,1.3,0,0,0-.037.31Zm-16.186-.724.153.3a.915.915,0,0,1,.1.422v8.172h7.241v-8.172a.915.915,0,0,1,.1-.422l.153-.3Zm7.084.724v7.758h-6.413v-7.758a1.3,1.3,0,0,0-.037-.31h6.488a1.3,1.3,0,0,0-.037.31Zm-16.186-.724.153.3a.915.915,0,0,1,.1.422v8.172h7.241v-8.172a.915.915,0,0,1,.1-.422l.153-.3Zm7.084.724v7.758h-6.413v-7.758a1.3,1.3,0,0,0-.037-.31h6.488a1.3,1.3,0,0,0-.037.31Zm-16.186-.724.153.3a.915.915,0,0,1,.1.422v8.172h7.241v-8.172a.915.915,0,0,1,.1-.422l.153-.3Zm7.084.724v7.758h-6.413v-7.758a1.3,1.3,0,0,0-.037-.31h6.488a1.3,1.3,0,0,0-.037.31Zm-16.186-.724.153.3a.915.915,0,0,1,.1.422v8.172h7.241v-8.172a.915.915,0,0,1,.1-.422l.153-.3Zm7.084.724v7.758H351.03v-7.758a1.3,1.3,0,0,0-.037-.31h6.488a1.3,1.3,0,0,0-.037.31Zm65.738-.724.153.3a.915.915,0,0,1,.1.422v8.172h7.241v-8.172a.915.915,0,0,1,.1-.422l.153-.3Zm7.084.724v7.758h-6.413v-7.758a1.3,1.3,0,0,0-.037-.31H430.3a1.3,1.3,0,0,0-.037.31Zm-16.186-.724.153.3a.915.915,0,0,1,.1.422v8.172h7.241v-8.172a.915.915,0,0,1,.1-.422l.153-.3Zm7.084.724v7.758h-6.413v-7.758a1.3,1.3,0,0,0-.037-.31H421.2a1.3,1.3,0,0,0-.037.31Zm-16.186-.724.153.3a.915.915,0,0,1,.1.422v8.172h7.241v-8.172a.915.915,0,0,1,.1-.422l.153-.3Zm7.084.724v7.758h-6.413v-7.758a1.3,1.3,0,0,0-.037-.31H412.1a1.3,1.3,0,0,0-.037.31Zm-16.186-.724.153.3a.915.915,0,0,1,.1.422v8.172h7.241v-8.172a.915.915,0,0,1,.1-.422l.153-.3Zm7.084.724v7.758h-6.413v-7.758a1.3,1.3,0,0,0-.037-.31h6.488a1.3,1.3,0,0,0-.037.31Zm-16.186-.724.153.3a.915.915,0,0,1,.1.422v8.172h7.241v-8.172a.915.915,0,0,1,.1-.422l.153-.3Zm7.084.724v7.758H387.44v-7.758a1.3,1.3,0,0,0-.037-.31h6.488a1.3,1.3,0,0,0-.037.31Zm-16.186-.724.153.3a.915.915,0,0,1,.1.422v8.172h7.241v-8.172a.915.915,0,0,1,.1-.422l.153-.3Zm7.084.724v7.758h-6.413v-7.758a1.3,1.3,0,0,0-.037-.31h6.488a1.3,1.3,0,0,0-.037.31Zm-16.186-.724.153.3a.915.915,0,0,1,.1.422v8.172h7.241v-8.172a.915.915,0,0,1,.1-.422l.153-.3Zm7.084.724v7.758h-6.413v-7.758a1.3,1.3,0,0,0-.037-.31h6.488a1.3,1.3,0,0,0-.037.31Zm-16.186-.724.153.3a.915.915,0,0,1,.1.422v8.172h7.241v-8.172a.915.915,0,0,1,.1-.422l.153-.3Zm7.084.724v7.758h-6.413v-7.758a1.3,1.3,0,0,0-.037-.31h6.488a1.3,1.3,0,0,0-.037.31Zm-16.186-.724.153.3a.915.915,0,0,1,.1.422v8.172h7.241v-8.172a.915.915,0,0,1,.1-.422l.153-.3Zm7.084.724v7.758H351.03v-7.758a1.3,1.3,0,0,0-.037-.31h6.488a1.3,1.3,0,0,0-.037.31Zm65.738-.724.153.3a.915.915,0,0,1,.1.422v8.172h7.241v-8.172a.915.915,0,0,1,.1-.422l.153-.3Zm7.084.724v7.758h-6.413v-7.758a1.3,1.3,0,0,0-.037-.31H430.3a1.3,1.3,0,0,0-.037.31Zm-16.033-.422a.915.915,0,0,1,.1.422v8.172h7.241v-8.172a.915.915,0,0,1,.1-.422l.153-.3h-7.754Zm6.968.112a1.3,1.3,0,0,0-.037.31v7.758h-6.413v-7.758a1.3,1.3,0,0,0-.037-.31Zm-16.07-.112a.915.915,0,0,1,.1.422v8.172h7.241v-8.172a.915.915,0,0,1,.1-.422l.153-.3h-7.754Zm6.968.112a1.3,1.3,0,0,0-.037.31v7.758h-6.413v-7.758a1.3,1.3,0,0,0-.037-.31Zm-16.07-.112a.915.915,0,0,1,.1.422v8.172h7.241v-8.172a.915.915,0,0,1,.1-.422l.153-.3h-7.754Zm6.968.112a1.3,1.3,0,0,0-.037.31v7.758h-6.413v-7.758a1.3,1.3,0,0,0-.037-.31Zm-16.07-.112a.915.915,0,0,1,.1.422v8.172h7.241v-8.172a.915.915,0,0,1,.1-.422l.153-.3H386.77Zm6.968.112a1.3,1.3,0,0,0-.037.31v7.758H387.44v-7.758a1.3,1.3,0,0,0-.037-.31Zm-16.07-.112a.915.915,0,0,1,.1.422v8.172h7.241v-8.172a.915.915,0,0,1,.1-.422l.153-.3h-7.754Zm6.968.112a1.3,1.3,0,0,0-.037.31v7.758h-6.413v-7.758a1.3,1.3,0,0,0-.037-.31Zm-16.07-.112a.915.915,0,0,1,.1.422v8.172h7.241v-8.172a.915.915,0,0,1,.1-.422l.153-.3h-7.754Zm6.968.112a1.3,1.3,0,0,0-.037.31v7.758h-6.413v-7.758a1.3,1.3,0,0,0-.037-.31Zm-16.07-.112a.915.915,0,0,1,.1.422v8.172h7.241v-8.172a.915.915,0,0,1,.1-.422l.153-.3h-7.754Zm6.968.112a1.3,1.3,0,0,0-.037.31v7.758h-6.413v-7.758a1.3,1.3,0,0,0-.037-.31Zm-16.07-.112a.915.915,0,0,1,.1.422v8.172h7.241v-8.172a.915.915,0,0,1,.1-.422l.153-.3h-7.754Zm6.968.112a1.3,1.3,0,0,0-.037.31v7.758H351.03v-7.758a1.3,1.3,0,0,0-.037-.31Zm65.854-.112a.915.915,0,0,1,.1.422v8.172h7.241v-8.172a.915.915,0,0,1,.1-.422l.153-.3h-7.754Zm6.968.112a1.3,1.3,0,0,0-.037.31v7.758h-6.413v-7.758a1.3,1.3,0,0,0-.037-.31Zm-16.07-.112a.915.915,0,0,1,.1.422v8.172h7.241v-8.172a.915.915,0,0,1,.1-.422l.153-.3h-7.754Zm6.968.112a1.3,1.3,0,0,0-.037.31v7.758h-6.413v-7.758a1.3,1.3,0,0,0-.037-.31Zm-16.07-.112a.915.915,0,0,1,.1.422v8.172h7.241v-8.172a.915.915,0,0,1,.1-.422l.153-.3h-7.754Zm6.968.112a1.3,1.3,0,0,0-.037.31v7.758h-6.413v-7.758a1.3,1.3,0,0,0-.037-.31Zm-16.07-.112a.915.915,0,0,1,.1.422v8.172h7.241v-8.172a.915.915,0,0,1,.1-.422l.153-.3h-7.754Zm6.968.112a1.3,1.3,0,0,0-.037.31v7.758h-6.413v-7.758a1.3,1.3,0,0,0-.037-.31Zm-16.07-.112a.915.915,0,0,1,.1.422v8.172h7.241v-8.172a.915.915,0,0,1,.1-.422l.153-.3H386.77Zm6.968.112a1.3,1.3,0,0,0-.037.31v7.758H387.44v-7.758a1.3,1.3,0,0,0-.037-.31Zm-16.07-.112a.915.915,0,0,1,.1.422v8.172h7.241v-8.172a.915.915,0,0,1,.1-.422l.153-.3h-7.754Zm6.968.112a1.3,1.3,0,0,0-.037.31v7.758h-6.413v-7.758a1.3,1.3,0,0,0-.037-.31Zm-16.07-.112a.915.915,0,0,1,.1.422v8.172h7.241v-8.172a.915.915,0,0,1,.1-.422l.153-.3h-7.754Zm6.968.112a1.3,1.3,0,0,0-.037.31v7.758h-6.413v-7.758a1.3,1.3,0,0,0-.037-.31Zm-16.07-.112a.915.915,0,0,1,.1.422v8.172h7.241v-8.172a.915.915,0,0,1,.1-.422l.153-.3h-7.754Zm6.968.112a1.3,1.3,0,0,0-.037.31v7.758h-6.413v-7.758a1.3,1.3,0,0,0-.037-.31Zm-16.07-.112a.915.915,0,0,1,.1.422v8.172h7.241v-8.172a.915.915,0,0,1,.1-.422l.153-.3h-7.754Zm6.968.112a1.3,1.3,0,0,0-.037.31v7.758H351.03v-7.758a1.3,1.3,0,0,0-.037-.31Zm81.473,9.723h-2.466a2.282,2.282,0,0,0-2.189-1.655h-1.345v-7.758a1.293,1.293,0,0,0-.093-.486,1.239,1.239,0,0,0-.631-2.307H349.064a1.239,1.239,0,0,0-.631,2.307,1.293,1.293,0,0,0-.093.486v7.758H347a2.282,2.282,0,0,0-2.189,1.655h-2.673a1.865,1.865,0,0,0-1.862,1.862V352.018a1.866,1.866,0,0,0,1.862,1.862h96.82a1.865,1.865,0,0,0,1.862-1.862V242.786a1.865,1.865,0,0,0-1.862-1.862ZM440.4,352.018a1.449,1.449,0,0,1-.945,1.357,1.39,1.39,0,0,1-.5.091h-96.82a1.391,1.391,0,0,1-.5-.091,1.449,1.449,0,0,1-.945-1.357V242.786a1.45,1.45,0,0,1,1.448-1.448h3l.033-.165a1.869,1.869,0,0,1,1.825-1.49h1.758v-8.172a.93.93,0,0,1,.132-.478l.128-.213-.234-.087a.825.825,0,0,1,.283-1.6H432.23a.825.825,0,0,1,.283,1.6l-.234.087.128.213a.929.929,0,0,1,.132.478v8.172H434.3a1.868,1.868,0,0,1,1.825,1.49l.033.165h2.8a1.45,1.45,0,0,1,1.448,1.448ZM350.359,230.787l.153.3a.915.915,0,0,1,.1.422v8.172h7.241v-8.172a.915.915,0,0,1,.1-.422l.153-.3Zm7.084.724v7.758H351.03v-7.758a1.3,1.3,0,0,0-.037-.31h6.488a1.3,1.3,0,0,0-.037.31Zm2.019-.724.153.3a.915.915,0,0,1,.1.422v8.172h7.241v-8.172a.915.915,0,0,1,.1-.422l.153-.3Zm7.084.724v7.758h-6.413v-7.758a1.3,1.3,0,0,0-.037-.31h6.488a1.3,1.3,0,0,0-.037.31Zm2.019-.724.153.3a.915.915,0,0,1,.1.422v8.172h7.241v-8.172a.915.915,0,0,1,.1-.422l.153-.3Zm7.084.724v7.758h-6.413v-7.758a1.3,1.3,0,0,0-.037-.31h6.488A1.3,1.3,0,0,0,375.648,231.511Zm2.019-.724.153.3a.915.915,0,0,1,.1.422v8.172h7.241v-8.172a.915.915,0,0,1,.1-.422l.153-.3Zm7.084.724v7.758h-6.413v-7.758a1.3,1.3,0,0,0-.037-.31h6.488A1.3,1.3,0,0,0,384.751,231.511Zm2.019-.724.153.3a.915.915,0,0,1,.1.422v8.172h7.241v-8.172a.915.915,0,0,1,.1-.422l.153-.3Zm7.084.724v7.758H387.44v-7.758a1.3,1.3,0,0,0-.037-.31h6.488A1.3,1.3,0,0,0,393.854,231.511Zm2.019-.724.153.3a.915.915,0,0,1,.1.422v8.172h7.241v-8.172a.915.915,0,0,1,.1-.422l.153-.3Zm7.084.724v7.758h-6.413v-7.758a1.3,1.3,0,0,0-.037-.31h6.488a1.3,1.3,0,0,0-.037.31Zm2.019-.724.153.3a.915.915,0,0,1,.1.422v8.172h7.241v-8.172a.915.915,0,0,1,.1-.422l.153-.3Zm7.084.724v7.758h-6.413v-7.758a1.3,1.3,0,0,0-.037-.31H412.1a1.3,1.3,0,0,0-.037.31Zm2.019-.724.153.3a.915.915,0,0,1,.1.422v8.172h7.241v-8.172a.915.915,0,0,1,.1-.422l.153-.3Zm7.084.724v7.758h-6.413v-7.758a1.3,1.3,0,0,0-.037-.31H421.2a1.3,1.3,0,0,0-.037.31Zm2.019-.724.153.3a.915.915,0,0,1,.1.422v8.172h7.241v-8.172a.915.915,0,0,1,.1-.422l.153-.3Zm7.084.724v7.758h-6.413v-7.758a1.3,1.3,0,0,0-.037-.31H430.3a1.3,1.3,0,0,0-.037.31Zm-79.905-.724.153.3a.915.915,0,0,1,.1.422v8.172h7.241v-8.172a.915.915,0,0,1,.1-.422l.153-.3Zm7.084.724v7.758H351.03v-7.758a1.3,1.3,0,0,0-.037-.31h6.488A1.3,1.3,0,0,0,357.443,231.511Zm2.019-.724.153.3a.915.915,0,0,1,.1.422v8.172h7.241v-8.172a.915.915,0,0,1,.1-.422l.153-.3Zm7.084.724v7.758h-6.413v-7.758a1.3,1.3,0,0,0-.037-.31h6.488a1.3,1.3,0,0,0-.037.31Zm2.019-.724.153.3a.915.915,0,0,1,.1.422v8.172h7.241v-8.172a.915.915,0,0,1,.1-.422l.153-.3Zm7.084.724v7.758h-6.413v-7.758a1.3,1.3,0,0,0-.037-.31h6.488a1.3,1.3,0,0,0-.037.31Zm2.019-.724.153.3a.915.915,0,0,1,.1.422v8.172h7.241v-8.172a.915.915,0,0,1,.1-.422l.153-.3Zm7.084.724v7.758h-6.413v-7.758a1.3,1.3,0,0,0-.037-.31h6.488a1.3,1.3,0,0,0-.037.31Zm2.019-.724.153.3a.915.915,0,0,1,.1.422v8.172h7.241v-8.172a.915.915,0,0,1,.1-.422l.153-.3Zm7.084.724v7.758H387.44v-7.758a1.3,1.3,0,0,0-.037-.31h6.488a1.3,1.3,0,0,0-.037.31Zm2.019-.724.153.3a.915.915,0,0,1,.1.422v8.172h7.241v-8.172a.915.915,0,0,1,.1-.422l.153-.3Zm7.084.724v7.758h-6.413v-7.758a1.3,1.3,0,0,0-.037-.31h6.488a1.3,1.3,0,0,0-.037.31Zm2.019-.724.153.3a.915.915,0,0,1,.1.422v8.172h7.241v-8.172a.915.915,0,0,1,.1-.422l.153-.3Zm7.084.724v7.758h-6.413v-7.758a1.3,1.3,0,0,0-.037-.31H412.1a1.3,1.3,0,0,0-.037.31Zm2.019-.724.153.3a.915.915,0,0,1,.1.422v8.172h7.241v-8.172a.915.915,0,0,1,.1-.422l.153-.3Zm7.084.724v7.758h-6.413v-7.758a1.3,1.3,0,0,0-.037-.31H421.2a1.3,1.3,0,0,0-.037.31Zm2.019-.724.153.3a.915.915,0,0,1,.1.422v8.172h7.241v-8.172a.915.915,0,0,1,.1-.422l.153-.3Zm7.084.724v7.758h-6.413v-7.758a1.3,1.3,0,0,0-.037-.31H430.3a1.3,1.3,0,0,0-.037.31Zm-79.905-.724.153.3a.915.915,0,0,1,.1.422v8.172h7.241v-8.172a.915.915,0,0,1,.1-.422l.153-.3Zm7.084.724v7.758H351.03v-7.758a1.3,1.3,0,0,0-.037-.31h6.488a1.3,1.3,0,0,0-.037.31Zm2.019-.724.153.3a.915.915,0,0,1,.1.422v8.172h7.241v-8.172a.915.915,0,0,1,.1-.422l.153-.3Zm7.084.724v7.758h-6.413v-7.758a1.3,1.3,0,0,0-.037-.31h6.488a1.3,1.3,0,0,0-.037.31Zm2.019-.724.153.3a.915.915,0,0,1,.1.422v8.172h7.241v-8.172a.915.915,0,0,1,.1-.422l.153-.3Zm7.084.724v7.758h-6.413v-7.758a1.3,1.3,0,0,0-.037-.31h6.488a1.3,1.3,0,0,0-.037.31Zm2.019-.724.153.3a.915.915,0,0,1,.1.422v8.172h7.241v-8.172a.915.915,0,0,1,.1-.422l.153-.3Zm7.084.724v7.758h-6.413v-7.758a1.3,1.3,0,0,0-.037-.31h6.488a1.3,1.3,0,0,0-.037.31Zm2.019-.724.153.3a.915.915,0,0,1,.1.422v8.172h7.241v-8.172a.915.915,0,0,1,.1-.422l.153-.3Zm7.084.724v7.758H387.44v-7.758a1.3,1.3,0,0,0-.037-.31h6.488a1.3,1.3,0,0,0-.037.31Zm2.019-.724.153.3a.915.915,0,0,1,.1.422v8.172h7.241v-8.172a.915.915,0,0,1,.1-.422l.153-.3Zm7.084.724v7.758h-6.413v-7.758a1.3,1.3,0,0,0-.037-.31h6.488a1.3,1.3,0,0,0-.037.31Zm2.019-.724.153.3a.915.915,0,0,1,.1.422v8.172h7.241v-8.172a.915.915,0,0,1,.1-.422l.153-.3Zm7.084.724v7.758h-6.413v-7.758a1.3,1.3,0,0,0-.037-.31H412.1a1.3,1.3,0,0,0-.037.31Zm2.019-.724.153.3a.915.915,0,0,1,.1.422v8.172h7.241v-8.172a.915.915,0,0,1,.1-.422l.153-.3Zm7.084.724v7.758h-6.413v-7.758a1.3,1.3,0,0,0-.037-.31H421.2a1.3,1.3,0,0,0-.037.31Zm2.019-.724.153.3a.915.915,0,0,1,.1.422v8.172h7.241v-8.172a.915.915,0,0,1,.1-.422l.153-.3Zm7.084.724v7.758h-6.413v-7.758a1.3,1.3,0,0,0-.037-.31H430.3a1.3,1.3,0,0,0-.037.31Zm-79.905-.724.153.3a.915.915,0,0,1,.1.422v8.172h7.241v-8.172a.915.915,0,0,1,.1-.422l.153-.3Zm7.084.724v7.758H351.03v-7.758a1.3,1.3,0,0,0-.037-.31h6.488a1.3,1.3,0,0,0-.037.31Zm2.019-.724.153.3a.915.915,0,0,1,.1.422v8.172h7.241v-8.172a.915.915,0,0,1,.1-.422l.153-.3Zm7.084.724v7.758h-6.413v-7.758a1.3,1.3,0,0,0-.037-.31h6.488a1.3,1.3,0,0,0-.037.31Zm2.019-.724.153.3a.915.915,0,0,1,.1.422v8.172h7.241v-8.172a.915.915,0,0,1,.1-.422l.153-.3Zm7.084.724v7.758h-6.413v-7.758a1.3,1.3,0,0,0-.037-.31h6.488a1.3,1.3,0,0,0-.037.31Zm2.019-.724.153.3a.915.915,0,0,1,.1.422v8.172h7.241v-8.172a.915.915,0,0,1,.1-.422l.153-.3Zm7.084.724v7.758h-6.413v-7.758a1.3,1.3,0,0,0-.037-.31h6.488a1.3,1.3,0,0,0-.037.31Zm2.019-.724.153.3a.915.915,0,0,1,.1.422v8.172h7.241v-8.172a.915.915,0,0,1,.1-.422l.153-.3Zm7.084.724v7.758H387.44v-7.758a1.3,1.3,0,0,0-.037-.31h6.488a1.3,1.3,0,0,0-.037.31Zm2.019-.724.153.3a.915.915,0,0,1,.1.422v8.172h7.241v-8.172a.915.915,0,0,1,.1-.422l.153-.3Zm7.084.724v7.758h-6.413v-7.758a1.3,1.3,0,0,0-.037-.31h6.488a1.3,1.3,0,0,0-.037.31Zm2.019-.724.153.3a.915.915,0,0,1,.1.422v8.172h7.241v-8.172a.915.915,0,0,1,.1-.422l.153-.3Zm7.084.724v7.758h-6.413v-7.758a1.3,1.3,0,0,0-.037-.31H412.1a1.3,1.3,0,0,0-.037.31Zm2.019-.724.153.3a.915.915,0,0,1,.1.422v8.172h7.241v-8.172a.915.915,0,0,1,.1-.422l.153-.3Zm7.084.724v7.758h-6.413v-7.758a1.3,1.3,0,0,0-.037-.31H421.2a1.3,1.3,0,0,0-.037.31Zm2.019-.724.153.3a.915.915,0,0,1,.1.422v8.172h7.241v-8.172a.915.915,0,0,1,.1-.422l.153-.3Zm7.084.724v7.758h-6.413v-7.758a1.3,1.3,0,0,0-.037-.31H430.3a1.3,1.3,0,0,0-.037.31Z" transform="translate(-289.53 -194.79)" fill="#3f3d56"/>
      <path id="Path_1947" data-name="Path 1947" d="M444.791,373.269H429.535a1.213,1.213,0,0,1-1.212-1.212V363.93a1.213,1.213,0,0,1,1.212-1.212h15.256A1.213,1.213,0,0,1,446,363.93v8.127A1.213,1.213,0,0,1,444.791,373.269Z" transform="translate(-359.365 -301.068)" fill="#2cd3c2"/>
      <path id="Path_1948" data-name="Path 1948" d="M557.01,373.269H541.754a1.213,1.213,0,0,1-1.212-1.212V363.93a1.213,1.213,0,0,1,1.212-1.212H557.01a1.213,1.213,0,0,1,1.212,1.212v8.127A1.213,1.213,0,0,1,557.01,373.269Z" transform="translate(-448.368 -301.068)" fill="#2cd3c2"/>
      <path id="Path_1949" data-name="Path 1949" d="M669.23,373.269H653.974a1.213,1.213,0,0,1-1.212-1.212V363.93a1.213,1.213,0,0,1,1.212-1.212H669.23a1.213,1.213,0,0,1,1.212,1.212v8.127A1.213,1.213,0,0,1,669.23,373.269Z" transform="translate(-537.372 -301.068)" fill="#2cd3c2"/>
      <path id="Path_1950" data-name="Path 1950" d="M444.791,504.269H429.535a1.213,1.213,0,0,1-1.212-1.212V494.93a1.213,1.213,0,0,1,1.212-1.212h15.256A1.213,1.213,0,0,1,446,494.93v8.127A1.213,1.213,0,0,1,444.791,504.269Z" transform="translate(-359.365 -404.967)" fill="#2cd3c2"/>
      <path id="Path_1951" data-name="Path 1951" d="M557.01,504.269H541.754a1.213,1.213,0,0,1-1.212-1.212V494.93a1.213,1.213,0,0,1,1.212-1.212H557.01a1.213,1.213,0,0,1,1.212,1.212v8.127A1.213,1.213,0,0,1,557.01,504.269Z" transform="translate(-448.368 -404.967)" fill="#2cd3c2"/>
      <path id="Path_1952" data-name="Path 1952" d="M669.23,504.269H653.974a1.213,1.213,0,0,1-1.212-1.212V494.93a1.213,1.213,0,0,1,1.212-1.212H669.23a1.213,1.213,0,0,1,1.212,1.212v8.127A1.213,1.213,0,0,1,669.23,504.269Z" transform="translate(-537.372 -404.967)" fill="#2cd3c2"/>
      <path id="Path_1953" data-name="Path 1953" d="M444.791,635.269H429.535a1.213,1.213,0,0,1-1.212-1.212V625.93a1.213,1.213,0,0,1,1.212-1.212h15.256A1.213,1.213,0,0,1,446,625.93v8.127A1.213,1.213,0,0,1,444.791,635.269Z" transform="translate(-359.365 -508.866)" fill="#2cd3c2"/>
      <path id="Path_1954" data-name="Path 1954" d="M557.01,635.269H541.754a1.213,1.213,0,0,1-1.212-1.212V625.93a1.213,1.213,0,0,1,1.212-1.212H557.01a1.213,1.213,0,0,1,1.212,1.212v8.127A1.213,1.213,0,0,1,557.01,635.269Z" transform="translate(-448.368 -508.866)" fill="#2cd3c2"/>
      <path id="Path_1955" data-name="Path 1955" d="M669.23,635.269H653.974a1.213,1.213,0,0,1-1.212-1.212V625.93a1.213,1.213,0,0,1,1.212-1.212H669.23a1.213,1.213,0,0,1,1.212,1.212v8.127A1.213,1.213,0,0,1,669.23,635.269Z" transform="translate(-537.372 -508.866)" fill="#2cd3c2"/>
      <path id="Path_1956" data-name="Path 1956" d="M422.056,370.314H404.383a1.613,1.613,0,0,1-1.611-1.611v-9.415a1.613,1.613,0,0,1,1.611-1.611h17.673a1.613,1.613,0,0,1,1.611,1.611V368.7A1.613,1.613,0,0,1,422.056,370.314Zm-17.673-12.223a1.2,1.2,0,0,0-1.2,1.2V368.7a1.2,1.2,0,0,0,1.2,1.2h17.673a1.2,1.2,0,0,0,1.2-1.2v-9.415a1.2,1.2,0,0,0-1.2-1.2Z" transform="translate(-339.1 -297.07)" fill="#3f3d56"/>
      <path id="Path_1957" data-name="Path 1957" d="M552.056,370.314H534.382a1.613,1.613,0,0,1-1.611-1.611v-9.415a1.613,1.613,0,0,1,1.611-1.611h17.673a1.613,1.613,0,0,1,1.611,1.611V368.7A1.613,1.613,0,0,1,552.056,370.314Zm-17.673-12.223a1.2,1.2,0,0,0-1.2,1.2V368.7a1.2,1.2,0,0,0,1.2,1.2h17.673a1.2,1.2,0,0,0,1.2-1.2v-9.415a1.2,1.2,0,0,0-1.2-1.2Z" transform="translate(-442.206 -297.07)" fill="#3f3d56"/>
      <path id="Path_1958" data-name="Path 1958" d="M682.056,370.314H664.382a1.613,1.613,0,0,1-1.611-1.611v-9.415a1.613,1.613,0,0,1,1.611-1.611h17.673a1.613,1.613,0,0,1,1.611,1.611V368.7A1.613,1.613,0,0,1,682.056,370.314Zm-17.673-12.223a1.2,1.2,0,0,0-1.2,1.2V368.7a1.2,1.2,0,0,0,1.2,1.2h17.673a1.2,1.2,0,0,0,1.2-1.2v-9.415a1.2,1.2,0,0,0-1.2-1.2Z" transform="translate(-545.311 -297.07)" fill="#3f3d56"/>
      <path id="Path_1959" data-name="Path 1959" d="M422.056,501.314H404.383a1.613,1.613,0,0,1-1.611-1.611v-9.415a1.613,1.613,0,0,1,1.611-1.611h17.673a1.613,1.613,0,0,1,1.611,1.611V499.7A1.613,1.613,0,0,1,422.056,501.314Zm-17.673-12.223a1.2,1.2,0,0,0-1.2,1.2V499.7a1.2,1.2,0,0,0,1.2,1.2h17.673a1.2,1.2,0,0,0,1.2-1.2v-9.415a1.2,1.2,0,0,0-1.2-1.2Z" transform="translate(-339.1 -400.969)" fill="#3f3d56"/>
      <path id="Path_1960" data-name="Path 1960" d="M552.056,501.314H534.382a1.613,1.613,0,0,1-1.611-1.611v-9.415a1.613,1.613,0,0,1,1.611-1.611h17.673a1.613,1.613,0,0,1,1.611,1.611V499.7A1.613,1.613,0,0,1,552.056,501.314Zm-17.673-12.223a1.2,1.2,0,0,0-1.2,1.2V499.7a1.2,1.2,0,0,0,1.2,1.2h17.673a1.2,1.2,0,0,0,1.2-1.2v-9.415a1.2,1.2,0,0,0-1.2-1.2Z" transform="translate(-442.206 -400.969)" fill="#3f3d56"/>
      <path id="Path_1961" data-name="Path 1961" d="M682.056,501.314H664.382a1.613,1.613,0,0,1-1.611-1.611v-9.415a1.613,1.613,0,0,1,1.611-1.611h17.673a1.613,1.613,0,0,1,1.611,1.611V499.7A1.613,1.613,0,0,1,682.056,501.314Zm-17.673-12.223a1.2,1.2,0,0,0-1.2,1.2V499.7a1.2,1.2,0,0,0,1.2,1.2h17.673a1.2,1.2,0,0,0,1.2-1.2v-9.415a1.2,1.2,0,0,0-1.2-1.2Z" transform="translate(-545.311 -400.969)" fill="#3f3d56"/>
      <path id="Path_1962" data-name="Path 1962" d="M422.056,632.314H404.383a1.613,1.613,0,0,1-1.611-1.611v-9.415a1.613,1.613,0,0,1,1.611-1.611h17.673a1.613,1.613,0,0,1,1.611,1.611V630.7A1.613,1.613,0,0,1,422.056,632.314Zm-17.673-12.223a1.2,1.2,0,0,0-1.2,1.2V630.7a1.2,1.2,0,0,0,1.2,1.2h17.673a1.2,1.2,0,0,0,1.2-1.2v-9.415a1.2,1.2,0,0,0-1.2-1.2Z" transform="translate(-339.1 -504.868)" fill="#3f3d56"/>
      <path id="Path_1963" data-name="Path 1963" d="M552.056,632.314H534.382a1.613,1.613,0,0,1-1.611-1.611v-9.415a1.613,1.613,0,0,1,1.611-1.611h17.673a1.613,1.613,0,0,1,1.611,1.611V630.7A1.613,1.613,0,0,1,552.056,632.314Zm-17.673-12.223a1.2,1.2,0,0,0-1.2,1.2V630.7a1.2,1.2,0,0,0,1.2,1.2h17.673a1.2,1.2,0,0,0,1.2-1.2v-9.415a1.2,1.2,0,0,0-1.2-1.2Z" transform="translate(-442.206 -504.868)" fill="#3f3d56"/>
      <path id="Path_1964" data-name="Path 1964" d="M682.056,632.314H664.382a1.613,1.613,0,0,1-1.611-1.611v-9.415a1.613,1.613,0,0,1,1.611-1.611h17.673a1.613,1.613,0,0,1,1.611,1.611V630.7A1.613,1.613,0,0,1,682.056,632.314Zm-17.673-12.223a1.2,1.2,0,0,0-1.2,1.2V630.7a1.2,1.2,0,0,0,1.2,1.2h17.673a1.2,1.2,0,0,0,1.2-1.2v-9.415a1.2,1.2,0,0,0-1.2-1.2Z" transform="translate(-545.311 -504.868)" fill="#3f3d56"/>
      <path id="Path_1965" data-name="Path 1965" d="M303.741,833.632H95.207a.207.207,0,1,1,0-.414H303.741a.207.207,0,1,1,0,.414Z" transform="translate(-95 -674.231)" fill="#3f3d56"/>
      <path id="Path_1967" data-name="Path 1967" d="M542.633,750.527H531.772V731.183a1.968,1.968,0,0,1,1.965-1.965h8.9Zm-10.447-.414h10.034V729.632h-8.482a1.553,1.553,0,0,0-1.552,1.552Z" transform="translate(-435.206 -591.747)" fill="#3f3d56"/>
      <circle id="Ellipse_116" data-name="Ellipse 116" cx="0.621" cy="0.621" r="0.621" transform="translate(97.29 148.332)" fill="#3f3d56"/>
    </g>
  </g>
</svg>
