<svg xmlns="http://www.w3.org/2000/svg" width="36.714" height="32.125" viewBox="0 0 36.714 32.125">
  <path id="Icon_awesome-camera" data-name="Icon awesome-camera" d="M36.714,10.281V30.933a3.443,3.443,0,0,1-3.442,3.442H3.442A3.443,3.443,0,0,1,0,30.933V10.281A3.443,3.443,0,0,1,3.442,6.839h6.31l.882-2.359a3.437,3.437,0,0,1,3.22-2.23h9a3.437,3.437,0,0,1,3.22,2.23l.889,2.359h6.31A3.443,3.443,0,0,1,36.714,10.281ZM26.962,20.607a8.6,8.6,0,1,0-8.6,8.6A8.612,8.612,0,0,0,26.962,20.607Zm-2.295,0a6.31,6.31,0,1,1-6.31-6.31A6.32,6.32,0,0,1,24.667,20.607Z" transform="translate(0 -2.25)" fill="#ffffff"/>
</svg>
