<svg xmlns="http://www.w3.org/2000/svg" width="30.849" height="30.849" viewBox="0 0 30.849 30.849">
  <path id="Icon_metro-headphones" data-name="Icon metro-headphones" d="M11.247,19.28H9.319v13.5h1.928a.967.967,0,0,0,.964-.964V20.244a.967.967,0,0,0-.964-.964Zm13.5,0a.967.967,0,0,0-.964.964V31.813a.967.967,0,0,0,.964.964h1.928V19.28Zm8.676-1.928A15.424,15.424,0,1,0,3.494,22.62,6.75,6.75,0,0,0,8.355,32.708V19.35a6.707,6.707,0,0,0-2.644.975,12.532,12.532,0,1,1,24.568,0,6.709,6.709,0,0,0-2.644-.977V32.708A6.75,6.75,0,0,0,32.5,22.62a15.394,15.394,0,0,0,.923-5.268Z" transform="translate(-2.571 -1.928)" fill="#707070"/>
</svg>
