<svg id="Home" xmlns="http://www.w3.org/2000/svg" xmlns:xlink="http://www.w3.org/1999/xlink" width="24" height="24" viewBox="0 0 24 24">
  <defs>
    <linearGradient id="linear-gradient" x1="0.5" x2="0.5" y2="1" gradientUnits="objectBoundingBox">
      <stop offset="0" stop-color="#10c4d3"/>
      <stop offset="1" stop-color="#4fe6af"/>
    </linearGradient>
  </defs>
  <rect id="Rectangle_157" data-name="Rectangle 157" width="24" height="24" fill="none"/>
  <g id="Home-2" data-name="Home" transform="translate(2 2)">
    <path id="Path_166" data-name="Path 166" d="M223.44,197.1v5.01a5,5,0,0,1-5,5h-10a5,5,0,0,1-5-5V197.1a5.018,5.018,0,0,1,1.6-3.67l5.68-5.26a3.985,3.985,0,0,1,5.44,0l5.68,5.26a5.018,5.018,0,0,1,1.6,3.67Z" transform="translate(-203.44 -187.096)" fill="url(#linear-gradient)"/>
    <path id="Path_167" data-name="Path 167" d="M216.91,200.108a.755.755,0,0,1-.75.75h-5.44a.75.75,0,0,1,0-1.5h5.44a.749.749,0,0,1,.75.75Z" transform="translate(-203.44 -187.096)" fill="url(#linear-gradient)"/>
  </g>
</svg>
