<svg id="Icon_ionic-ios-list" data-name="Icon ionic-ios-list" xmlns="http://www.w3.org/2000/svg" width="18.445" height="14.602" viewBox="0 0 18.445 14.602">
  <path id="Path_350" data-name="Path 350" d="M7.19,17.376a1.345,1.345,0,1,1-1.345-1.345A1.345,1.345,0,0,1,7.19,17.376Z" transform="translate(-4.5 -10.075)" fill="#0c80e3"/>
  <path id="Path_351" data-name="Path 351" d="M7.19,8.657A1.345,1.345,0,1,1,5.845,7.313,1.345,1.345,0,0,1,7.19,8.657Z" transform="translate(-4.5 -7.313)" fill="#0c80e3"/>
  <path id="Path_352" data-name="Path 352" d="M7.19,26.095A1.345,1.345,0,1,1,5.845,24.75,1.345,1.345,0,0,1,7.19,26.095Z" transform="translate(-4.5 -12.838)" fill="#0c80e3"/>
  <path id="Path_353" data-name="Path 353" d="M24.66,16.875H13.108a.769.769,0,0,0,0,1.537H24.66a.769.769,0,0,0,0-1.537Z" transform="translate(-6.984 -10.342)" fill="#0c80e3"/>
  <path id="Path_354" data-name="Path 354" d="M24.66,25.594H13.108a.769.769,0,0,0,0,1.537H24.66a.769.769,0,0,0,0-1.537Z" transform="translate(-6.984 -13.105)" fill="#0c80e3"/>
  <path id="Path_355" data-name="Path 355" d="M13.108,9.693H24.66a.769.769,0,1,0,0-1.537H13.108a.769.769,0,1,0,0,1.537Z" transform="translate(-6.984 -7.58)" fill="#0c80e3"/>
</svg>
