<svg id="Iconly_Bold_Location" data-name="Iconly/Bold/Location" xmlns="http://www.w3.org/2000/svg" width="20" height="20" viewBox="0 0 20 20">
  <g id="Location" transform="translate(2.917 1.667)">
    <path id="Location-2" data-name="Location" d="M7.054,16.664a.871.871,0,0,1-.562-.206,18.281,18.281,0,0,1-4.659-4.341A8.977,8.977,0,0,1,0,6.992,6.94,6.94,0,0,1,2.09,2.045,7.086,7.086,0,0,1,7.093,0h.015a7.16,7.16,0,0,1,5,2.075A7.04,7.04,0,0,1,14.167,7.05v.042c-.031,1.556-.617,3.975-3.233,6.666a18.479,18.479,0,0,1-3.316,2.7A.873.873,0,0,1,7.054,16.664ZM7.109,4.942A2.236,2.236,0,0,0,4.867,7.167a2.189,2.189,0,0,0,.646,1.558,2.25,2.25,0,0,0,1.57.658h.026A2.235,2.235,0,0,0,8.683,8.75a2.207,2.207,0,0,0,.676-1.583A2.241,2.241,0,0,0,7.109,4.942Z" transform="translate(0 0)" fill="#ccd3d8"/>
  </g>
</svg>
