<svg xmlns="http://www.w3.org/2000/svg" width="13.144" height="15" viewBox="0 0 13.144 15">
  <path id="Icon_open-timer" data-name="Icon open-timer" d="M3.75,0V1.875H5.625v.056a6.568,6.568,0,1,0,7.5,6.506,6.369,6.369,0,0,0-.469-2.344l-1.706.713a4.511,4.511,0,0,1,.3,1.65A4.688,4.688,0,1,1,6.562,3.769a4.583,4.583,0,0,1,1.65.3L8.85,2.306a7.851,7.851,0,0,0-1.35-.3V1.894H9.375V.019H3.75Zm9.375,2.175S6.281,7.444,5.925,7.8a.917.917,0,0,0,0,1.294.884.884,0,0,0,1.294,0c.375-.375,5.925-6.919,5.925-6.919Z" fill="#ccd3d8"/>
</svg>
