<svg xmlns="http://www.w3.org/2000/svg" width="120" height="120" viewBox="0 0 120 120"><path d="M0,0H120V120H0Z" fill="none"/><path d="M90.963,23.955,70.971,43.91H85.965A29.984,29.984,0,0,1,55.977,73.842,29.383,29.383,0,0,1,41.983,70.35l-7.3,7.284A39.927,39.927,0,0,0,95.961,43.91h14.994ZM25.99,43.91A29.984,29.984,0,0,1,55.977,13.977,29.384,29.384,0,0,1,69.972,17.47l7.3-7.284A39.927,39.927,0,0,0,15.994,43.91H1L20.992,63.865,40.984,43.91Z" transform="translate(4.023 16.09)" fill="currentColor"/></svg>
