<svg xmlns="http://www.w3.org/2000/svg" xmlns:xlink="http://www.w3.org/1999/xlink" width="18" height="20" viewBox="0 0 18 20">
  <defs>
    <linearGradient id="linear-gradient" x1="0.5" x2="0.5" y2="1" gradientUnits="objectBoundingBox">
      <stop offset="0" stop-color="#10c4d3"/>
      <stop offset="1" stop-color="#4fe6af"/>
    </linearGradient>
  </defs>
  <path id="Icon_material-date-range" data-name="Icon material-date-range" d="M10.5,12h-2v2h2Zm4,0h-2v2h2Zm4,0h-2v2h2Zm2-7h-1V3h-2V5h-8V3h-2V5h-1A1.991,1.991,0,0,0,4.51,7L4.5,21a2,2,0,0,0,2,2h14a2.006,2.006,0,0,0,2-2V7A2.006,2.006,0,0,0,20.5,5Zm0,16H6.5V10h14Z" transform="translate(-4.5 -3)" fill="url(#linear-gradient)"/>
</svg>
