<svg xmlns="http://www.w3.org/2000/svg" width="16" height="16" viewBox="0 0 16 16"><path d="M0,0H16V16H0Z" fill="none"/><g transform="translate(-0.855 -1.462)" fill="currentColor"><path d="M 6.968296051025391 14.11571407318115 L 6.795326232910156 13.94997406005859 L 3.237026214599609 10.54034423828125 L 3.047986268997192 10.35919380187988 L 3.237666130065918 10.17871379852295 L 4.141566276550293 9.318674087524414 L 4.314506053924561 9.154133796691895 L 4.486865997314453 9.319284439086914 L 6.968381404876709 11.6971321105957 L 13.53645610809326 5.409414291381836 L 13.70941638946533 5.243834018707275 L 13.88229656219482 5.409494400024414 L 14.77983665466309 6.269524097442627 L 14.96821594238281 6.450034141540527 L 14.77984619140625 6.630544185638428 L 7.141266345977783 13.94997406005859 L 6.968296051025391 14.11571407318115 Z" stroke="none"/><path d="M 6.968296051025391 13.76946449279785 L 14.60687637329102 6.450034141540527 L 13.70933628082275 5.590004444122314 L 6.968296051025391 12.04330444335938 L 4.313896179199219 9.499794006347656 L 3.409996271133423 10.35983467102051 L 6.968296051025391 13.76946449279785 M 6.968296051025391 14.46195411682129 L 6.622366428375244 14.13047409057617 L 3.064066171646118 10.72084426879883 L 2.685976266860962 10.35855388641357 L 3.065336227416992 9.997604370117188 L 3.969236135482788 9.137564659118652 L 4.315116405487061 8.808464050292969 L 4.659826278686523 9.138784408569336 L 6.968456745147705 11.3509693145752 L 13.36357593536377 5.228824138641357 L 13.70949649810791 4.897674083709717 L 14.05526638031006 5.228984355926514 L 14.95280647277832 6.089014053344727 L 15.32956600189209 6.450034141540527 L 14.95280647277832 6.811044216156006 L 7.314226150512695 14.13047409057617 L 6.968296051025391 14.46195411682129 Z" stroke="none" fill="currentColor"/></g></svg>
