<svg xmlns="http://www.w3.org/2000/svg" width="25" height="16.667" viewBox="0 0 25 16.667">
  <path id="Icon_awesome-eye" data-name="Icon awesome-eye" d="M24.849,12.2A13.921,13.921,0,0,0,12.5,4.5,13.923,13.923,0,0,0,.151,12.2a1.4,1.4,0,0,0,0,1.267,13.921,13.921,0,0,0,12.349,7.7,13.923,13.923,0,0,0,12.349-7.7A1.4,1.4,0,0,0,24.849,12.2ZM12.5,19.083a6.25,6.25,0,1,1,6.25-6.25A6.25,6.25,0,0,1,12.5,19.083Zm0-10.417a4.137,4.137,0,0,0-1.1.164,2.077,2.077,0,0,1-2.9,2.9,4.157,4.157,0,1,0,4-3.068Z" transform="translate(0 -4.5)" fill="#334f65"/>
</svg>
