<svg xmlns="http://www.w3.org/2000/svg" width="20.947" height="20.947" viewBox="0 0 20.947 20.947">
  <path id="Icon_ionic-ios-checkmark-circle" data-name="Icon ionic-ios-checkmark-circle" d="M13.848,3.375A10.473,10.473,0,1,0,24.322,13.848,10.472,10.472,0,0,0,13.848,3.375Zm5.363,7.578-6.732,6.762h-.005a.909.909,0,0,1-.584.277.882.882,0,0,1-.589-.287l-2.82-2.82a.2.2,0,0,1,0-.287l.9-.9a.195.195,0,0,1,.282,0l2.236,2.236L18.038,9.75a.2.2,0,0,1,.141-.06h0a.183.183,0,0,1,.141.06l.881.911A.2.2,0,0,1,19.211,10.953Z" transform="translate(-3.375 -3.375)" fill="#4fe6af"/>
</svg>
