<svg xmlns="http://www.w3.org/2000/svg" width="20.997" height="21" viewBox="0 0 20.997 21">
  <path id="Icon_awesome-check-double" data-name="Icon awesome-check-double" d="M20.708,7.168,19.084,5.544a.98.98,0,0,0-1.39,0L7.872,15.366,3.3,10.793a.98.98,0,0,0-1.39,0L.286,12.421a.985.985,0,0,0,0,1.394l6.89,6.894a.98.98,0,0,0,1.39,0L20.7,8.562A.989.989,0,0,0,20.708,7.168Zm-13.3,4.347a.651.651,0,0,0,.927,0l8.53-8.538a.658.658,0,0,0,0-.927L15.012.192a.651.651,0,0,0-.927,0L7.872,6.4,5.6,4.129a.651.651,0,0,0-.927,0L2.816,5.987a.658.658,0,0,0,0,.927Z" transform="translate(0.004 0.002)" fill="#fff"/>
</svg>
