<svg xmlns="http://www.w3.org/2000/svg" width="18.218" height="15.941" viewBox="0 0 18.218 15.941">
  <path id="Icon_awesome-sliders-h" data-name="Icon awesome-sliders-h" d="M17.649,14.775H5.693v-.569a.571.571,0,0,0-.569-.569H3.985a.571.571,0,0,0-.569.569v.569H.569A.571.571,0,0,0,0,15.344v1.139a.571.571,0,0,0,.569.569H3.416v.569a.571.571,0,0,0,.569.569H5.124a.571.571,0,0,0,.569-.569v-.569H17.649a.571.571,0,0,0,.569-.569V15.344A.571.571,0,0,0,17.649,14.775Zm0-5.693H14.8V8.513a.571.571,0,0,0-.569-.569H13.094a.571.571,0,0,0-.569.569v.569H.569A.571.571,0,0,0,0,9.651V10.79a.571.571,0,0,0,.569.569H12.525v.569a.571.571,0,0,0,.569.569h1.139a.571.571,0,0,0,.569-.569v-.569h2.847a.571.571,0,0,0,.569-.569V9.651A.571.571,0,0,0,17.649,9.082Zm0-5.693h-7.4V2.819a.571.571,0,0,0-.569-.569H8.54a.571.571,0,0,0-.569.569v.569H.569A.571.571,0,0,0,0,3.958V5.1a.571.571,0,0,0,.569.569h7.4v.569A.571.571,0,0,0,8.54,6.8H9.678a.571.571,0,0,0,.569-.569V5.666h7.4a.571.571,0,0,0,.569-.569V3.958A.571.571,0,0,0,17.649,3.389Z" transform="translate(0 -2.25)" fill="#334f65"/>
</svg>
