<svg xmlns="http://www.w3.org/2000/svg" width="21.901" height="21.871" viewBox="0 0 21.901 21.871">
  <g id="Group_22520" data-name="Group 22520" transform="translate(326.957 93.189)">
    <path id="Path_406" data-name="Path 406" d="M-326.957-33.72c.055-.4.1-.8.166-1.2a10.632,10.632,0,0,1,1.827-4.411c.039-.055.1-.1.1-.2l-1.569.135-.111-1.274,3.824-.335.336,3.826-1.272.109-.148-1.608-.062-.006a9.3,9.3,0,0,0-1.306,8.651c1.487,4.264,4.66,6.376,9.145,6.689v1.234h-.683a.868.868,0,0,0-.143-.034,11.233,11.233,0,0,1-1.5-.215,10.948,10.948,0,0,1-8.435-8.754c-.067-.413-.114-.828-.171-1.243Z" transform="translate(0 -49.209)" fill="#ffa200" opacity="0.5"/>
    <path id="Path_407" data-name="Path 407" d="M-221.576,5.042a7.415,7.415,0,0,1-7.413,7.406,7.417,7.417,0,0,1-7.392-7.4,7.415,7.415,0,0,1,7.413-7.405A7.414,7.414,0,0,1-221.576,5.042Zm-3.306.814V4.215h-3.289V.949h-1.612V5.856Z" transform="translate(-87.051 -87.292)" fill="#ffa200"/>
    <path id="Path_408" data-name="Path 408" d="M-135.155-91.945v-1.244a10.547,10.547,0,0,1,8.83,4.559c2.947,4.235,2.731,8.568.023,12.876l1.543-.132.112,1.274-3.825.335-.336-3.825,1.272-.113.148,1.61.06.006a9.287,9.287,0,0,0,1.353-8.513C-127.426-89.46-130.618-91.618-135.155-91.945Z" transform="translate(-180.864)" fill="#ffa200" opacity="0.5"/>
  </g>
</svg>
