<svg id="Iconly_Bold_Location" data-name="Iconly/Bold/Location" xmlns="http://www.w3.org/2000/svg" width="14" height="14" viewBox="0 0 14 14">
  <g id="Location" transform="translate(2.042 1.167)">
    <path id="Location-2" data-name="Location" d="M4.938,11.665a.609.609,0,0,1-.394-.145A12.8,12.8,0,0,1,1.283,8.482,6.284,6.284,0,0,1,0,4.894,4.858,4.858,0,0,1,1.463,1.431,4.96,4.96,0,0,1,4.965,0h.011a5.012,5.012,0,0,1,3.5,1.453A4.928,4.928,0,0,1,9.917,4.935v.029A6.928,6.928,0,0,1,7.653,9.631a12.935,12.935,0,0,1-2.322,1.89A.611.611,0,0,1,4.938,11.665Zm.038-8.206A1.565,1.565,0,0,0,3.407,5.017a1.532,1.532,0,0,0,.452,1.091,1.575,1.575,0,0,0,1.1.46h.018a1.565,1.565,0,0,0,1.1-.443,1.545,1.545,0,0,0,.473-1.108A1.568,1.568,0,0,0,4.976,3.459Z" transform="translate(0 0)" fill="#000000"/>
  </g>
</svg>
