<svg xmlns="http://www.w3.org/2000/svg" xmlns:xlink="http://www.w3.org/1999/xlink" width="162.558" height="149.368" viewBox="0 0 162.558 149.368">
  <defs>
    <linearGradient id="linear-gradient" x1="0.5" y1="1" x2="0.5" gradientUnits="objectBoundingBox">
      <stop offset="0" stop-color="#0c80e3"/>
      <stop offset="1" stop-color="#3c99e8"/>
    </linearGradient>
  </defs>
  <g id="Group_22607" data-name="Group 22607" transform="translate(-102 -157)">
    <g id="Group_22604" data-name="Group 22604">
      <path id="Path_474" data-name="Path 474" d="M86.082,11.37c32.512,43.986,69.485,21.393,69.485,65.023s-44.623,4.463-77.772,51.636S-6.991,104.087-6.991,60.456,53.57-32.616,86.082,11.37Z" transform="translate(108.991 162.786)" fill="#fff"/>
      <g id="Group_22603" data-name="Group 22603" transform="translate(74.466 -60.67)">
        <g id="Group_22602" data-name="Group 22602" transform="translate(63.534 250.31)">
          <g id="Group_22601" data-name="Group 22601">
            <g id="Group_22600" data-name="Group 22600" transform="translate(0 0)">
              <path id="Path_459" data-name="Path 459" d="M87.294,300.588s11.224,13.153,16.492,24.927c0,5.887-2.061,23.174,2.52,27.308s13.285-5.136,16.339-14.322c4.749-14.284-1.336-29.144-2.367-31.525,9.505,0,24.508,1.128,25.081-16.91s-14.545-35.7-15.919-36.452S105.618,249.481,90.5,257c-2.52-.5-5.269.125-7.33,0s-11.453-4.886-14.43-1.378-5.154,6.889-4.466,25.052,3.321,20.668,9.505,21.921,12.025-1.128,13.056-2.13Z" transform="translate(-63.702 -250.733)" fill="#b8f5df"/>
              <path id="Path_460" data-name="Path 460" d="M133.929,363.557c-1.491-.816-25.844-4.485-42.246,3.669-2.734-.543-5.716.136-7.952,0s-12.426-5.3-15.656-1.495a16,16,0,0,0-3.813,7.225c.233-10.872,2.132-13.665,4.569-16.535,2.978-3.507,12.369,1.252,14.43,1.378s4.81-.5,7.329,0c15.118-7.516,37.564-4.134,38.939-3.382.938.513,8.275,8.905,12.659,19.915C138.353,368.083,134.605,363.927,133.929,363.557Z" transform="translate(-63.733 -351.287)" fill="#4fe6af" opacity="0.72"/>
              <g id="Group_22599" data-name="Group 22599" transform="translate(49.425 2.578)">
                <path id="Path_461" data-name="Path 461" d="M147.1,361.43c5.259-1.343,16.263-2.756,21.531,1.879,4.009,3.633,1.947,10.9-.916,11.023s-22.447,2.255-25.425-2.255C140.114,368.444,140.786,363.042,147.1,361.43Z" transform="translate(-134.223 -360.124)" fill="#b8f5df"/>
                <path id="Path_462" data-name="Path 462" d="M138.109,356.921s-4.123-1.252-3.321-7.641c.4-3.163,3.124-4.883,6.5-5.767a35.471,35.471,0,0,1,10.565-.747c5.955.376,16.148.125,18.095,4.885s.229,9.9-1.26,10.9S145.1,360.93,138.109,356.921Z" transform="translate(-132.448 -330.939)" fill="#b8f5df"/>
                <path id="Path_463" data-name="Path 463" d="M131.654,334.386s-1.26,7.641,8.818,8.518,20.271.751,28.975-1.754c5.039-2,5.039-12.276-.343-13.9s-31.079-1.947-34.472,1.252C131.311,331.63,131.654,334.386,131.654,334.386Z" transform="translate(-131.604 -301.514)" fill="#b8f5df"/>
                <path id="Path_464" data-name="Path 464" d="M168.093,309.849c.411.049,3.092-.25,4.237,4.385s.573,8.142-4.123,9.645-24.165,3.507-29.433-2.881c-3.321-4.635.687-9.52,4.123-10.146S161.794,309.1,168.093,309.849Z" transform="translate(-133.227 -270.464)" fill="#b8f5df"/>
                <path id="Path_465" data-name="Path 465" d="M168.815,320.214c-6.179-.737-21.346.369-24.717.983a7,7,0,0,0-5.131,5.175c-2.62-4.385,1.139-8.843,4.382-9.435,3.371-.614,18.538-1.72,24.717-.983.4.048,3.034-.245,4.157,4.3a15.235,15.235,0,0,1,.489,3.37C171.487,320.011,169.189,320.26,168.815,320.214Z" transform="translate(-133.38 -276.282)" fill="#4fe6af" opacity="0.72"/>
                <path id="Path_466" data-name="Path 466" d="M169.783,337.166c-5.311-1.607-30.669-1.92-34.017,1.236-3.278,3.09-2.938,5.809-2.938,5.809l0,.014a7.282,7.282,0,0,1-.751-4.134s-.339-2.719,2.938-5.809c3.349-3.158,28.706-2.843,34.018-1.237,2.8.848,4.126,4.072,4.02,7.218A5.33,5.33,0,0,0,169.783,337.166Z" transform="translate(-131.719 -306.963)" fill="#4fe6af" opacity="0.72"/>
                <path id="Path_467" data-name="Path 467" d="M170.356,360.543a11.472,11.472,0,0,0-.764-3.019c-1.914-4.68-11.934-4.433-17.788-4.8a34.866,34.866,0,0,0-10.386.734c-3.077.807-5.6,2.321-6.265,5.016a10.73,10.73,0,0,1-.012-3.04c.39-3.11,3.071-4.8,6.389-5.67a34.892,34.892,0,0,1,10.386-.733c5.854.369,15.874.123,17.788,4.8A12.136,12.136,0,0,1,170.356,360.543Z" transform="translate(-132.545 -336.839)" fill="#4fe6af" opacity="0.72"/>
                <path id="Path_468" data-name="Path 468" d="M168.675,372.435c-5.191-4.567-16.034-3.174-21.216-1.851-3.541.9-5.279,3.019-5.726,5.333-.956-3.346.361-7.277,5.557-8.6s16.025-2.715,21.216,1.851a7.363,7.363,0,0,1,2.112,6.549A6.591,6.591,0,0,0,168.675,372.435Z" transform="translate(-134.299 -365.785)" fill="#4fe6af" opacity="0.72"/>
              </g>
              <path id="Path_469" data-name="Path 469" d="M135.972,252.576a.509.509,0,0,0-.074.185h-.019l.015.033a.5.5,0,0,0,.222.528c1.468,3.56,6.493,17.284,2.1,30.508-3.01,9.054-11.588,18.189-16.1,14.115-.088-.079-.169-.172-.253-.261a34.243,34.243,0,0,0,6.745-11.608c4.887-14.7-.886-29.957-2.369-33.5Z" transform="translate(-79.509 -196.137)" fill="#72ebbf" opacity="0.72"/>
              <rect id="Rectangle_1052" data-name="Rectangle 1052" width="22.676" height="57.118" fill="#6db3ee"/>
              <rect id="Rectangle_1053" data-name="Rectangle 1053" width="6.297" height="56.295" transform="translate(15.976 0.605)" fill="#0c80e3"/>
            </g>
            <path id="Path_470" data-name="Path 470" d="M158.734,275.364a20.008,20.008,0,0,1-6.64,7.256,20.165,20.165,0,0,1,6.635,7.253,25.613,25.613,0,0,1,2.915-4.072,23.143,23.143,0,0,1,3.7-3.166,24.777,24.777,0,0,1-3.682-3.163A24.252,24.252,0,0,1,158.734,275.364Z" transform="translate(-87.792 -205.163)" fill="url(#linear-gradient)"/>
            <path id="Path_471" data-name="Path 471" d="M168.555,258.578a12.928,12.928,0,0,1-4.288,4.686,13.021,13.021,0,0,1,4.285,4.685,16.6,16.6,0,0,1,1.882-2.63,15,15,0,0,1,2.392-2.044,16.035,16.035,0,0,1-2.378-2.043A15.719,15.719,0,0,1,168.555,258.578Z" transform="translate(-91.126 -169.908)" fill="#6fdbe4"/>
            <path id="Path_472" data-name="Path 472" d="M174.885,291.422a12.46,12.46,0,0,1-4.134,4.517,12.555,12.555,0,0,1,4.131,4.516,15.975,15.975,0,0,1,1.814-2.535A14.479,14.479,0,0,1,179,295.949a15.417,15.417,0,0,1-2.292-1.969A15.131,15.131,0,0,1,174.885,291.422Z" transform="translate(-92.902 -228.498)" fill="#6fdbe4"/>
            <path id="Path_473" data-name="Path 473" d="M154.509,250.31a9.407,9.407,0,0,1-3.12,3.409,9.472,9.472,0,0,1,3.117,3.408,12.045,12.045,0,0,1,1.37-1.913,10.882,10.882,0,0,1,1.74-1.487,11.657,11.657,0,0,1-1.73-1.486A11.383,11.383,0,0,1,154.509,250.31Z" transform="translate(-87.598 -152.52)" fill="#4fe6af"/>
          </g>
        </g>
      </g>
    </g>
  </g>
</svg>
