<svg xmlns="http://www.w3.org/2000/svg" width="162.558" height="149.368" viewBox="0 0 162.558 149.368">
  <g id="Group_22606" data-name="Group 22606" transform="translate(-102 -160.632)">
    <path id="Path_474" data-name="Path 474" d="M86.082,11.37c32.512,43.986,69.485,21.393,69.485,65.023s-44.623,4.463-77.772,51.636S-6.991,104.087-6.991,60.456,53.57-32.616,86.082,11.37Z" transform="translate(108.991 166.418)" fill="#fff"/>
    <g id="Group_22605" data-name="Group 22605" transform="translate(16.412 -75.612)">
      <g id="Group_22593" data-name="Group 22593" transform="translate(118.763 254)">
        <g id="Group_22545" data-name="Group 22545" transform="translate(73.258 10.488)">
          <path id="Path_413" data-name="Path 413" d="M575.193,112.229l-2.236,10.826-1.438-1.4-2.449,1.745-1.87-2.322-4.2,3.051-3.584-6-4,2.342-1.585-2.187-5.079,2.861-1.528-3.271,3.56-17.242,19.086,3.94Z" transform="translate(-543.498 -100.634)" fill="#dcfaef"/>
          <path id="Path_414" data-name="Path 414" d="M639.912,117.5l5.321,7.654-6.619-1.367Z" transform="translate(-613.537 -113.563)" fill="#95f0cf"/>
          <path id="Path_415" data-name="Path 415" d="M560.246,188.887l-3.279,15.883-25.705-5.306,3.254-15.757,1.528,3.271,5.079-2.861,1.586,2.187,4-2.342,3.584,6,4.2-3.051,1.87,2.322,2.449-1.745Z" transform="translate(-531.262 -164.302)" fill="#dcfaef"/>
        </g>
        <g id="Group_22547" data-name="Group 22547" transform="translate(37.171 0)">
          <path id="Path_416" data-name="Path 416" d="M405.052,88.946l-26.2,1.621-2.081-33.629,19.451-1.2,7.142,5.99Z" transform="translate(-376.774 -55.734)" fill="#cee6fa"/>
          <path id="Path_417" data-name="Path 417" d="M460.045,55.734l7.142,5.99-6.746.417Z" transform="translate(-440.594 -55.734)" fill="#6db3ee"/>
          <g id="Group_22546" data-name="Group 22546" transform="translate(8.807 8.054)">
            <path id="Path_418" data-name="Path 418" d="M417.86,104.784l-.1-.758a6.737,6.737,0,0,1,1.533-5.17c1.231-1.627,1.9-2.811,1.826-4.129-.084-1.495-1.077-2.438-2.924-2.364a5.216,5.216,0,0,0-2.908,1.074l-.807-1.807a7.694,7.694,0,0,1,4.124-1.406c3.369-.189,5.009,1.806,5.134,4.033.111,1.993-.921,3.49-2.234,5.239a5.8,5.8,0,0,0-1.429,4.4l.072.76Zm-.415,4.138a1.735,1.735,0,0,1,1.655-1.944,1.836,1.836,0,1,1-1.655,1.944Z" transform="translate(-414.478 -90.211)" fill="#6db3ee"/>
          </g>
        </g>
        <g id="Group_22548" data-name="Group 22548" transform="translate(0 80.642)">
          <ellipse id="Ellipse_107" data-name="Ellipse 107" cx="51.868" cy="5.683" rx="51.868" ry="5.683" fill="#ebebeb"/>
        </g>
        <g id="Group_22566" data-name="Group 22566" transform="translate(2.228 23.497)">
          <g id="Group_22551" data-name="Group 22551" transform="translate(10.384)">
            <g id="Group_22549" data-name="Group 22549">
              <path id="Path_419" data-name="Path 419" d="M342.809,240.563h-71.17L281.929,182.2H353.1Z" transform="translate(-271.638 -176.156)" fill="#0c80e3"/>
              <path id="Path_420" data-name="Path 420" d="M340.052,156.325H316.76l-1.066,6.044h24.927Z" transform="translate(-305.403 -156.325)" fill="#0c80e3"/>
            </g>
            <g id="Group_22550" data-name="Group 22550">
              <path id="Path_421" data-name="Path 421" d="M342.809,240.563h-71.17L281.929,182.2H353.1Z" transform="translate(-271.638 -176.156)" fill="#4fe6af"/>
              <path id="Path_422" data-name="Path 422" d="M340.052,156.325H316.76l-1.066,6.044h24.927Z" transform="translate(-305.403 -156.325)" fill="#4fe6af"/>
            </g>
          </g>
          <g id="Group_22564" data-name="Group 22564" transform="translate(13.115 0.433)">
            <g id="Group_22552" data-name="Group 22552" transform="translate(5.996)">
              <path id="Path_423" data-name="Path 423" d="M309.114,160.211a4.481,4.481,0,0,1,0-2.033,3.963,3.963,0,0,1,.117,1.016A4,4,0,0,1,309.114,160.211Z" transform="translate(-308.997 -158.178)" fill="#263238"/>
            </g>
            <g id="Group_22553" data-name="Group 22553" transform="translate(3.026 0.871)">
              <path id="Path_424" data-name="Path 424" d="M297.3,163.667a4,4,0,0,1-.609-.822,3.951,3.951,0,0,1-.407-.939,4.487,4.487,0,0,1,1.016,1.761Z" transform="translate(-296.285 -161.906)" fill="#263238"/>
            </g>
            <g id="Group_22554" data-name="Group 22554" transform="translate(0.789 3.168)">
              <path id="Path_425" data-name="Path 425" d="M288.468,172.757a4,4,0,0,1-.939-.407,3.952,3.952,0,0,1-.822-.609,3.947,3.947,0,0,1,.939.407A4,4,0,0,1,288.468,172.757Z" transform="translate(-286.707 -171.741)" fill="#263238"/>
            </g>
            <g id="Group_22555" data-name="Group 22555" transform="translate(0 6.16)">
              <path id="Path_426" data-name="Path 426" d="M285.363,184.664a4.006,4.006,0,0,1-1.017.117,3.954,3.954,0,0,1-1.016-.117,3.965,3.965,0,0,1,1.016-.117A4.006,4.006,0,0,1,285.363,184.664Z" transform="translate(-283.33 -184.547)" fill="#263238"/>
            </g>
            <g id="Group_22556" data-name="Group 22556" transform="translate(0.871 8.346)">
              <path id="Path_427" data-name="Path 427" d="M288.819,193.908a4.01,4.01,0,0,1-.822.609,3.954,3.954,0,0,1-.939.407,3.945,3.945,0,0,1,.822-.609A3.987,3.987,0,0,1,288.819,193.908Z" transform="translate(-287.058 -193.908)" fill="#263238"/>
            </g>
            <g id="Group_22557" data-name="Group 22557" transform="translate(3.168 9.839)">
              <path id="Path_428" data-name="Path 428" d="M297.91,200.3a4.006,4.006,0,0,1-.407.939,3.952,3.952,0,0,1-.609.822,3.954,3.954,0,0,1,.407-.939A4,4,0,0,1,297.91,200.3Z" transform="translate(-296.893 -200.3)" fill="#263238"/>
            </g>
            <g id="Group_22558" data-name="Group 22558" transform="translate(6.16 10.356)">
              <path id="Path_429" data-name="Path 429" d="M309.817,202.511a3.994,3.994,0,0,1,.117,1.017,3.954,3.954,0,0,1-.117,1.016,3.954,3.954,0,0,1-.117-1.016A4,4,0,0,1,309.817,202.511Z" transform="translate(-309.7 -202.511)" fill="#263238"/>
            </g>
            <g id="Group_22559" data-name="Group 22559" transform="translate(8.346 9.757)">
              <path id="Path_430" data-name="Path 430" d="M319.06,199.949a4.483,4.483,0,0,1,1.016,1.76,3.958,3.958,0,0,1-.609-.822A4,4,0,0,1,319.06,199.949Z" transform="translate(-319.06 -199.949)" fill="#263238"/>
            </g>
            <g id="Group_22560" data-name="Group 22560" transform="translate(9.839 8.204)">
              <path id="Path_431" data-name="Path 431" d="M325.452,193.3a4.01,4.01,0,0,1,.939.407,3.965,3.965,0,0,1,.822.609,3.95,3.95,0,0,1-.939-.407A4,4,0,0,1,325.452,193.3Z" transform="translate(-325.452 -193.299)" fill="#263238"/>
            </g>
            <g id="Group_22561" data-name="Group 22561" transform="translate(10.356 5.996)">
              <path id="Path_432" data-name="Path 432" d="M327.664,183.962a3.991,3.991,0,0,1,1.016-.117,3.941,3.941,0,0,1,1.016.117,3.952,3.952,0,0,1-1.016.117A4,4,0,0,1,327.664,183.962Z" transform="translate(-327.664 -183.845)" fill="#263238"/>
            </g>
            <g id="Group_22562" data-name="Group 22562" transform="translate(9.757 3.026)">
              <path id="Path_433" data-name="Path 433" d="M325.1,172.149a4,4,0,0,1,.822-.609,3.957,3.957,0,0,1,.939-.407,4.487,4.487,0,0,1-1.761,1.016Z" transform="translate(-325.101 -171.133)" fill="#263238"/>
            </g>
            <g id="Group_22563" data-name="Group 22563" transform="translate(8.204 0.789)">
              <path id="Path_434" data-name="Path 434" d="M318.452,163.316a4,4,0,0,1,.407-.939,3.952,3.952,0,0,1,.609-.822,3.949,3.949,0,0,1-.407.939A4,4,0,0,1,318.452,163.316Z" transform="translate(-318.452 -161.555)" fill="#263238"/>
            </g>
          </g>
          <path id="Path_435" data-name="Path 435" d="M308.634,247.514H237.31L227.184,191.27h71.324Z" transform="translate(-227.184 -183.107)" fill="#72ebbf"/>
          <g id="Group_22565" data-name="Group 22565" transform="translate(21.751 36.616)">
            <circle id="Ellipse_108" data-name="Ellipse 108" cx="2.965" cy="2.965" r="2.965" fill="#263238"/>
            <circle id="Ellipse_109" data-name="Ellipse 109" cx="2.965" cy="2.965" r="2.965" transform="translate(23.435 0)" fill="#263238"/>
            <path id="Path_436" data-name="Path 436" d="M371.6,327.79l-.163-.31a5.65,5.65,0,0,0-4.628-2.859,3.668,3.668,0,0,0-3.523,2.779l-.083.34-.68-.164.082-.34a4.43,4.43,0,0,1,4.2-3.315,6.254,6.254,0,0,1,5.248,3.234l.163.31Z" transform="translate(-352.66 -321.388)" fill="#263238"/>
          </g>
        </g>
        <g id="Group_22589" data-name="Group 22589" transform="translate(78.92 6.549)">
          <g id="Group_22570" data-name="Group 22570" transform="translate(0 3.136)">
            <g id="Group_22567" data-name="Group 22567" transform="translate(0 52.832)">
              <path id="Path_437" data-name="Path 437" d="M555.551,323.707l-.049-.229c.15-.032.3-.068.45-.106l.058.226Q555.781,323.657,555.551,323.707Z" transform="translate(-555.502 -323.372)" fill="#263238"/>
            </g>
            <g id="Group_22568" data-name="Group 22568" transform="translate(0.753 0.388)">
              <path id="Path_438" data-name="Path 438" d="M559.385,151.26l-.075-.221c.292-.1.584-.209.866-.329l.091.215C559.98,151.047,559.682,151.16,559.385,151.26Zm1.738-.735-.107-.208c.275-.142.547-.294.807-.455l.122.2C561.68,150.225,561.4,150.381,561.122,150.525Zm1.608-.99-.138-.189c.251-.184.495-.378.723-.577l.153.176C563.236,149.149,562.987,149.347,562.73,149.535Zm1.423-1.242-.169-.161c.215-.225.418-.46.6-.7l.184.144A9.434,9.434,0,0,1,564.153,148.293Zm1.158-1.5-.2-.122a7.288,7.288,0,0,0,.43-.814l.213.1A7.6,7.6,0,0,1,565.312,146.8Zm.773-1.732L565.86,145a5.993,5.993,0,0,0,.189-.9l.232.031A6.335,6.335,0,0,1,566.084,145.066Zm.257-1.878-.234,0v-.066a8.409,8.409,0,0,0-.044-.853l.232-.024a8.654,8.654,0,0,1,.045.876Zm-.421-1.83c-.063-.3-.142-.595-.236-.892l.223-.071c.1.3.178.612.242.914Zm-.553-1.759c-.113-.275-.242-.559-.383-.844l.21-.1c.143.29.275.578.39.858Zm-.818-1.664c-.144-.256-.3-.525-.474-.8l.2-.123c.172.278.333.55.479.809Zm-.976-1.586q-.255-.388-.519-.776l.193-.131q.264.39.521.779Zm-1.046-1.548q-.263-.385-.526-.774l.194-.131q.261.388.526.772Zm-1.044-1.555q-.255-.393-.5-.794l.2-.121q.243.4.5.788Zm-.974-1.605c-.158-.283-.305-.563-.439-.832l.21-.1c.131.266.277.543.433.822Zm-.831-1.687c-.124-.294-.237-.589-.336-.879l.221-.075c.1.285.209.575.331.864Zm-.607-1.783c-.078-.3-.145-.615-.2-.922l.23-.039c.051.3.116.6.193.9Zm-.313-1.859c-.023-.287-.035-.579-.035-.867v-.077l.234,0v.075c0,.282.011.567.034.849Zm.245-1.866-.233-.021c.006-.065.013-.131.02-.2.027-.251.063-.5.1-.739l.23.041c-.041.234-.076.478-.1.724C559.016,124.316,559.01,124.381,559,124.445Zm.324-1.817-.225-.062a9.078,9.078,0,0,1,.3-.9l.218.085A8.8,8.8,0,0,0,559.328,122.628Zm11.641-1.362c-.132-.006-.266-.019-.4-.037-.182-.025-.365-.056-.544-.091l.046-.229c.174.035.352.065.529.089.127.018.254.029.379.035Zm.96-.073-.049-.228a2.673,2.673,0,0,0,.832-.322l.121.2A2.908,2.908,0,0,1,571.928,121.193ZM560,120.916l-.207-.109a7.959,7.959,0,0,1,.492-.81l.192.133A7.674,7.674,0,0,0,560,120.916Zm9.108-.014a8.7,8.7,0,0,1-.887-.334l.094-.214a8.423,8.423,0,0,0,.863.325Zm4.437-.728-.194-.13a1.657,1.657,0,0,0,.284-.815l.233.015A1.894,1.894,0,0,1,573.546,120.174Zm-6.169-.036a8.555,8.555,0,0,1-.792-.521l.139-.188a8.388,8.388,0,0,0,.77.506Zm-6.329-.729-.174-.156a7.805,7.805,0,0,1,.675-.666l.154.176A7.594,7.594,0,0,0,561.048,119.409Zm4.808-.4a8.851,8.851,0,0,1-.66-.679l.176-.154a8.647,8.647,0,0,0,.642.661Zm7.6-.632a2.265,2.265,0,0,0-.544-.7l.155-.175a2.514,2.514,0,0,1,.6.768ZM562.43,118.2l-.132-.192a8.8,8.8,0,0,1,.809-.493l.111.206A8.509,8.509,0,0,0,562.43,118.2Zm2.182-.609c-.089-.126-.174-.255-.258-.387-.1.039-.2.078-.3.12l-.09-.216c.088-.036.177-.072.268-.107q-.062-.1-.122-.211l.2-.114c.046.082.093.163.141.243.131-.047.264-.091.4-.133l.07.223c-.115.036-.229.074-.342.114.073.114.147.225.224.335Zm7.553-.4a5.126,5.126,0,0,0-.7-.285l-.154-.048.067-.224.16.05a5.343,5.343,0,0,1,.729.3Zm-6.349-.418-.051-.228c.3-.068.616-.124.929-.168l.033.231C566.419,116.648,566.113,116.7,565.816,116.769Zm4.6-.124c-.292-.052-.6-.092-.917-.119l.02-.233c.323.028.638.069.937.122Zm-2.768-.136-.016-.233c.278-.018.559-.028.836-.028h.108l0,.234h-.106C568.2,116.482,567.921,116.491,567.649,116.509Zm-3.962-.568c-.125-.285-.239-.583-.338-.883l.222-.073c.1.294.207.584.33.863Zm-.591-1.794c-.069-.3-.127-.615-.171-.929l.231-.032c.043.307.1.613.168.909Zm-.262-1.869c-.011-.209-.017-.424-.018-.64q0-.151,0-.3l.234.006q0,.15,0,.3c0,.212.006.423.017.627Zm.279-1.862-.232-.024c.031-.308.075-.623.13-.934l.23.04C563.186,109.8,563.143,110.113,563.112,110.416Zm.32-1.824-.227-.056c.074-.3.161-.6.257-.907l.223.071C563.59,108,563.505,108.3,563.432,108.591Zm.561-1.767-.217-.085c.114-.292.24-.584.375-.865l.21.1C564.229,106.252,564.105,106.537,563.994,106.824Zm.8-1.666-.2-.118c.157-.271.328-.538.506-.8l.192.133C565.118,104.63,564.95,104.892,564.8,105.158Zm1.054-1.521-.181-.148c.2-.241.406-.48.623-.709l.17.16C566.248,103.166,566.042,103.4,565.849,103.637Zm1.273-1.345-.157-.173c.227-.208.469-.414.717-.612l.146.183C567.583,101.886,567.345,102.088,567.122,102.292Zm1.45-1.155-.133-.192c.254-.177.52-.35.79-.513l.122.2C569.084,100.793,568.822,100.963,568.572,101.137Zm1.586-.964-.11-.206c.275-.145.559-.286.845-.417l.1.212C570.709,99.892,570.428,100.03,570.158,100.174Zm1.688-.776-.086-.217c.294-.116.592-.224.886-.322l.074.222C572.429,99.176,572.136,99.283,571.846,99.4Z" transform="translate(-558.724 -98.858)" fill="#263238"/>
            </g>
            <g id="Group_22569" data-name="Group 22569" transform="translate(15.625)">
              <path id="Path_439" data-name="Path 439" d="M622.449,97.53l-.058-.226c.29-.075.455-.106.462-.107l.043.229S622.732,97.457,622.449,97.53Z" transform="translate(-622.391 -97.197)" fill="#263238"/>
            </g>
          </g>
          <g id="Group_22588" data-name="Group 22588" transform="translate(13.835)">
            <g id="Group_22571" data-name="Group 22571" transform="translate(2.07 0.901)">
              <path id="Path_440" data-name="Path 440" d="M627.5,88.686c-.6-1.846-4.586-1.183-3.807,1.229S628.1,90.532,627.5,88.686Z" transform="translate(-623.592 -87.626)" fill="#263238"/>
            </g>
            <g id="Group_22578" data-name="Group 22578">
              <g id="Group_22572" data-name="Group 22572">
                <path id="Path_441" data-name="Path 441" d="M614.73,84.986c.03-.81,1.156-1.433,2.748-1.145a8.928,8.928,0,0,1,3.092,1.36,8.9,8.9,0,0,1-3.183,1.133C615.778,86.5,614.7,85.8,614.73,84.986Z" transform="translate(-614.729 -83.77)" fill="#ebebeb"/>
              </g>
              <g id="Group_22577" data-name="Group 22577" transform="translate(0.888 0.499)">
                <g id="Group_22573" data-name="Group 22573" transform="translate(0 0.749)">
                  <path id="Path_442" data-name="Path 442" d="M623.484,89.3c-.827.006-1.652-.022-2.478-.047s-1.651-.068-2.475-.135c.827-.006,1.652.022,2.478.047S622.66,89.23,623.484,89.3Z" transform="translate(-618.532 -89.113)" fill="#263238"/>
                </g>
                <g id="Group_22574" data-name="Group 22574" transform="translate(0.713)">
                  <path id="Path_443" data-name="Path 443" d="M621.583,85.908a6.59,6.59,0,0,1,.683.376,6.478,6.478,0,0,1,.637.45,6.419,6.419,0,0,1-.683-.376A6.52,6.52,0,0,1,621.583,85.908Z" transform="translate(-621.583 -85.908)" fill="#263238"/>
                </g>
                <g id="Group_22575" data-name="Group 22575" transform="translate(1.504 0.855)">
                  <path id="Path_444" data-name="Path 444" d="M626.343,89.57a7.276,7.276,0,0,1-.663.479,7.11,7.11,0,0,1-.71.405,7.624,7.624,0,0,1,1.373-.884Z" transform="translate(-624.97 -89.57)" fill="#263238"/>
                </g>
                <g id="Group_22576" data-name="Group 22576" transform="translate(3.117 0.399)">
                  <path id="Path_445" data-name="Path 445" d="M631.877,87.618a1.74,1.74,0,0,1,.6.487,1.646,1.646,0,0,1-.33-.21A1.667,1.667,0,0,1,631.877,87.618Z" transform="translate(-631.877 -87.618)" fill="#263238"/>
                </g>
              </g>
            </g>
            <g id="Group_22585" data-name="Group 22585" transform="translate(1.323 2.432)">
              <g id="Group_22579" data-name="Group 22579">
                <path id="Path_446" data-name="Path 446" d="M620.586,97.772c.5.639,1.776.486,2.9-.679a8.923,8.923,0,0,0,1.713-2.911,8.9,8.9,0,0,0-3.245.943C620.549,95.928,620.086,97.129,620.586,97.772Z" transform="translate(-620.391 -94.182)" fill="#ebebeb"/>
              </g>
              <g id="Group_22584" data-name="Group 22584" transform="translate(0.896)">
                <g id="Group_22580" data-name="Group 22580">
                  <path id="Path_447" data-name="Path 447" d="M628.139,94.182c-.674.479-1.327.984-1.982,1.488s-1.3,1.021-1.928,1.556c.674-.479,1.328-.984,1.982-1.487S627.509,94.718,628.139,94.182Z" transform="translate(-624.228 -94.182)" fill="#263238"/>
                </g>
                <g id="Group_22581" data-name="Group 22581" transform="translate(1.016 1.794)">
                  <path id="Path_448" data-name="Path 448" d="M628.579,103.3a6.6,6.6,0,0,0,.334-.7,6.5,6.5,0,0,0,.253-.737,6.94,6.94,0,0,0-.587,1.442Z" transform="translate(-628.579 -101.86)" fill="#263238"/>
                </g>
                <g id="Group_22582" data-name="Group 22582" transform="translate(0.641 1.264)">
                  <path id="Path_449" data-name="Path 449" d="M628.6,99.6a7.644,7.644,0,0,0-1.631.086,7.127,7.127,0,0,0,.818,0A7.242,7.242,0,0,0,628.6,99.6Z" transform="translate(-626.972 -99.591)" fill="#263238"/>
                </g>
                <g id="Group_22583" data-name="Group 22583" transform="translate(2.733 0.757)">
                  <path id="Path_450" data-name="Path 450" d="M635.93,98.17a1.651,1.651,0,0,0,.145-.363.2.2,0,1,0-.084-.023A1.659,1.659,0,0,0,635.93,98.17Z" transform="translate(-635.93 -97.422)" fill="#263238"/>
                </g>
              </g>
            </g>
            <g id="Group_22586" data-name="Group 22586" transform="translate(5.062 0.595)">
              <path id="Path_451" data-name="Path 451" d="M637.316,87.682a.7.7,0,1,1,.451-.881A.7.7,0,0,1,637.316,87.682Z" transform="translate(-636.401 -86.316)" fill="#455a64"/>
            </g>
            <g id="Group_22587" data-name="Group 22587" transform="translate(5.492 1.927)">
              <path id="Path_452" data-name="Path 452" d="M639.158,93.384a.7.7,0,1,1,.451-.881A.7.7,0,0,1,639.158,93.384Z" transform="translate(-638.242 -92.018)" fill="#455a64"/>
            </g>
          </g>
        </g>
        <g id="Group_22592" data-name="Group 22592" transform="translate(9.744 2.767)">
          <g id="Group_22590" data-name="Group 22590">
            <path id="Path_453" data-name="Path 453" d="M259.4,74.228a5.82,5.82,0,0,0,9.727,3.683l2.913.427-1.457-2.518A5.823,5.823,0,1,0,259.4,74.228Z" transform="translate(-259.363 -67.748)" fill="#fff"/>
            <path id="Path_454" data-name="Path 454" d="M259.395,74.059a5.863,5.863,0,0,0,1.175,2.951,6.514,6.514,0,0,0,.528.608,6.583,6.583,0,0,0,.614.52,5.737,5.737,0,0,0,1.4.782,5.808,5.808,0,0,0,1.567.374,5.739,5.739,0,0,0,.809.015,5.1,5.1,0,0,0,.806-.084,5.874,5.874,0,0,0,2.88-1.422l-.069.021,2.91.447.211.032-.107-.186-1.449-2.523.007.1a5.886,5.886,0,0,0-.359-5.189,5.954,5.954,0,0,0-1.823-1.942,5.923,5.923,0,0,0-5.117-.689,5.946,5.946,0,0,0-2.245,1.377A5.856,5.856,0,0,0,259.395,74.059Zm0,0a5.759,5.759,0,0,1,6.6-6.3,5.719,5.719,0,0,1,2.4.95,6,6,0,0,1,1.742,1.9,5.748,5.748,0,0,1,.739,2.463,5.818,5.818,0,0,1-.41,2.536l-.021.052.028.047,1.466,2.513.1-.153-2.915-.408-.04-.006-.029.027a5.736,5.736,0,0,1-2.788,1.436,4.993,4.993,0,0,1-.79.1,5.632,5.632,0,0,1-.8,0,5.733,5.733,0,0,1-1.555-.342,5.412,5.412,0,0,1-1.4-.757A5.235,5.235,0,0,1,260.587,77,5.853,5.853,0,0,1,259.395,74.059Z" transform="translate(-259.362 -67.579)" fill="#263238"/>
          </g>
          <g id="Group_22591" data-name="Group 22591" transform="translate(3.089 2.574)">
            <path id="Path_455" data-name="Path 455" d="M292.739,84.614a.566.566,0,0,0-.57-.6.6.6,0,0,0,0,1.2A.566.566,0,0,0,292.739,84.614Zm-.242-1.381.135-4.634h-.927l.135,4.634Z" transform="translate(-287.158 -78.599)" fill="#ffc727"/>
            <path id="Path_456" data-name="Path 456" d="M283.231,84.614a.566.566,0,0,0-.569-.6.6.6,0,0,0,0,1.2A.566.566,0,0,0,283.231,84.614Zm-.241-1.381.135-4.634H282.2l.135,4.634Z" transform="translate(-279.871 -78.599)" fill="#ffc727"/>
            <path id="Path_457" data-name="Path 457" d="M273.724,84.614a.566.566,0,0,0-.57-.6.6.6,0,0,0,0,1.2A.566.566,0,0,0,273.724,84.614Zm-.241-1.381.135-4.634h-.927l.135,4.634Z" transform="translate(-272.585 -78.599)" fill="#ffc727"/>
          </g>
        </g>
      </g>
    </g>
  </g>
</svg>
