<svg xmlns="http://www.w3.org/2000/svg" width="18" height="18" viewBox="0 0 18 18"><path d="M0,0H18V18H0Z" fill="none"/><g transform="translate(0.785 5.006)"><path d="M1.747,14.848H16.684v1.57H1.747Zm.859-3.179.635-1.162.635,1.162.971-.589L4.211,9.92h1.27V8.742H4.211l.635-1.154L3.875,7,3.241,8.154,2.606,7l-.971.589L2.27,8.742H1V9.92H2.27l-.635,1.162Zm5-.589.971.589.635-1.162L9.85,11.67l.971-.589L10.186,9.92h1.27V8.742h-1.27l.635-1.154L9.85,7,9.215,8.154,8.58,7l-.971.589.635,1.154H6.975V9.92h1.27ZM17.43,8.742h-1.27L16.8,7.589,15.825,7,15.19,8.154,14.555,7l-.971.589.635,1.154h-1.27V9.92h1.27l-.635,1.162.971.589.635-1.162.635,1.162.971-.589L16.161,9.92h1.27Z" transform="translate(-1 -7)" fill="currentColor"/></g></svg>
