<svg xmlns="http://www.w3.org/2000/svg" width="20" height="15.959" viewBox="0 0 20 15.959" fill="#00243F">
  <path id="Path_487" data-name="Path 487" d="M-506,4.658a.771.771,0,0,1,.524-.476q4.5-1.622,9-3.258a.894.894,0,0,1,.644,0q4.506,1.636,9.015,3.267c.4.144.565.417.47.753a.588.588,0,0,1-.392.4c-.281.1-.561.207-.844.3a.172.172,0,0,0-.138.195c0,1.679,0,3.358.007,5.037a.371.371,0,0,0,.1.232c.455.465.918.923,1.377,1.384a.6.6,0,0,1,.006.953c-.454.457-.908.914-1.368,1.365a.381.381,0,0,0-.124.307c.007.358,0,.716,0,1.074a.59.59,0,0,1-.583.626.588.588,0,0,1-.587-.62c0-.371.006-.742-.006-1.113a.409.409,0,0,0-.1-.251c-.449-.462-.908-.914-1.363-1.371a.606.606,0,0,1,0-.981c.454-.457.913-.91,1.363-1.37a.373.373,0,0,0,.108-.23c.006-1.542,0-3.085,0-4.627,0-.037-.006-.073-.011-.132-.454.163-.894.316-1.328.485-.049.019-.084.134-.085.2-.005,1.145-.013,2.291,0,3.436a.987.987,0,0,1-.349.805,5.644,5.644,0,0,1-2.223,1.174,12.667,12.667,0,0,1-4.33.41,9.668,9.668,0,0,1-3.027-.606,4.984,4.984,0,0,1-1.639-1,.981.981,0,0,1-.328-.777c.014-1.158,0-2.317.009-3.475a.233.233,0,0,0-.186-.262c-1.02-.37-2.034-.756-3.055-1.124A.852.852,0,0,1-506,4.932Zm2.3.132c.085.034.139.057.193.077q3.518,1.3,7.035,2.609a.5.5,0,0,0,.371,0q3.133-1.136,6.27-2.263l1.176-.424c-.081-.036-.126-.06-.173-.077q-3.592-1.3-7.186-2.6a.5.5,0,0,0-.314.005q-3.046,1.092-6.086,2.2C-502.832,4.472-503.25,4.627-503.7,4.79Zm2.68,2.25a.462.462,0,0,0-.015.073c0,1,0,2,0,3.007a.346.346,0,0,0,.123.22,3.393,3.393,0,0,0,1.214.647,11.57,11.57,0,0,0,6.143.206,4.895,4.895,0,0,0,1.912-.844.329.329,0,0,0,.147-.293c-.006-.931,0-1.861,0-2.792,0-.057-.006-.115-.01-.2l-.215.075c-1.406.506-2.812,1.01-4.215,1.522a.965.965,0,0,1-.716-.006c-1.1-.417-2.2-.82-3.306-1.228Zm12.685,6.767.835-.837-.812-.814-.84.834Z" transform="translate(506 -0.865)"/>
</svg>
