<svg xmlns="http://www.w3.org/2000/svg" width="18.742" height="20.071" viewBox="0 0 18.742 20.071" fill="#00243F">
  <g id="Group_22641" data-name="Group 22641" transform="translate(-230.737 -94.853)">
    <path id="Path_492" data-name="Path 492" d="M231.309,333.948a.864.864,0,0,1-.571-.972,9.122,9.122,0,0,1,.636-3.247,6.668,6.668,0,0,1,3.555-3.584,11.184,11.184,0,0,1,3.718-.9,16.688,16.688,0,0,1,3.6.072,9.4,9.4,0,0,1,4.293,1.54,6.684,6.684,0,0,1,2.714,4.21,11.615,11.615,0,0,1,.218,1.9.856.856,0,0,1-.571.972Zm8.8-1.462q3.819,0,7.637,0c.2,0,.236-.062.215-.245a7.523,7.523,0,0,0-.358-1.641,5.133,5.133,0,0,0-1.966-2.593,8.2,8.2,0,0,0-3.828-1.275,15.517,15.517,0,0,0-2.939-.041,9.165,9.165,0,0,0-3.814,1.018,5.157,5.157,0,0,0-1.975,1.886,6.536,6.536,0,0,0-.829,2.649c-.022.19.023.241.219.24Q236.291,332.48,240.109,332.486Z" transform="translate(0 -219.024)"/>
    <path id="Path_493" data-name="Path 493" d="M332.49,99.977a5.364,5.364,0,0,1-2.064,4.138,4.52,4.52,0,0,1-5.25.241,5.239,5.239,0,0,1-2.35-5.336,4.568,4.568,0,0,1,2.339-3.523,4.8,4.8,0,0,1,3.141-.593,4.627,4.627,0,0,1,3.314,2.014A5.178,5.178,0,0,1,332.49,99.977Zm-8.27-.221a4.068,4.068,0,0,0,1.194,2.946,3.1,3.1,0,0,0,4.207.177,3.821,3.821,0,0,0,1.339-3.69,3.382,3.382,0,0,0-5.086-2.409A3.315,3.315,0,0,0,324.22,99.756Z" transform="translate(-87.514 0)"/>
  </g>
</svg>
