<svg xmlns="http://www.w3.org/2000/svg" width="15.241" height="20" viewBox="0 0 15.241 20" fill="#00243F">
  <g id="Group_22643" data-name="Group 22643" transform="translate(-275.376 -106.751)">
    <path id="Path_496" data-name="Path 496" d="M277.253,126.751a3.23,3.23,0,0,1-.766-.271,2.117,2.117,0,0,1-1.107-1.912c-.007-1.419,0-2.838,0-4.256q0-5.672,0-11.344a2.147,2.147,0,0,1,1.658-2.157,2.349,2.349,0,0,1,.561-.059q3.515,0,7.029,0a2.237,2.237,0,0,1,1.6.641q1.8,1.714,3.618,3.42a2.325,2.325,0,0,1,.766,1.787c-.006,3.964-.012,7.927,0,11.891a2.177,2.177,0,0,1-1.831,2.233c-.017,0-.033.018-.05.028Zm-.7-10q0,3.9,0,7.792a.973.973,0,0,0,1,1.035q5.439,0,10.878,0a.971.971,0,0,0,1.007-1.012q0-5.888,0-11.776c0-.147-.038-.183-.183-.182-1.087.006-2.174,0-3.261,0a1.375,1.375,0,0,1-1.48-1.489c0-1,0-1.992,0-2.988,0-.169-.036-.215-.211-.215-2.22.007-4.44,0-6.659,0a.989.989,0,0,0-1.1,1.094Q276.55,112.885,276.55,116.752Zm12.253-5.312-3.1-2.932c-.007.063-.012.087-.012.111q0,1.278,0,2.555c0,.2.064.264.271.265.507,0,1.014,0,1.521,0Z" transform="translate(0 0)"/>
    <path id="Path_497" data-name="Path 497" d="M330.5,257.586q-2.161,0-4.322,0a.57.57,0,0,1-.6-.773.579.579,0,0,1,.559-.354c.252,0,.5,0,.757,0h7.946c.481,0,.788.394.607.782a.607.607,0,0,1-.606.347Q332.673,257.584,330.5,257.586Z" transform="translate(-47.635 -141.875)"/>
    <path id="Path_498" data-name="Path 498" d="M330.514,317.488q-2.171,0-4.341,0a.569.569,0,0,1-.6-.776.589.589,0,0,1,.582-.352h1.494q3.595,0,7.189,0c.479,0,.786.4.6.785a.61.61,0,0,1-.608.344q-1.872,0-3.744,0Z" transform="translate(-47.63 -198.646)"/>
    <path id="Path_499" data-name="Path 499" d="M327.5,377.367c-.433,0-.865,0-1.3,0a.567.567,0,1,1,.008-1.128h2.6a.569.569,0,1,1-.008,1.128Z" transform="translate(-47.543 -255.393)"/>
  </g>
</svg>
