<svg xmlns="http://www.w3.org/2000/svg" width="19.988" height="20" viewBox="0 0 19.988 20" fill="#00243F">
  <g id="Group_22640" data-name="Group 22640" transform="translate(-225.158 -107.498)">
    <path id="Path_488" data-name="Path 488" d="M225.158,112.069a8.066,8.066,0,0,1,.258-1.179,4.975,4.975,0,1,1-.224,2.148,1.609,1.609,0,0,0-.034-.159Zm4.745.961a1.719,1.719,0,0,1-1.421-1.847,1.657,1.657,0,0,1,3.271-.138c.171.915-.289,1.592-1.36,1.982a2.817,2.817,0,0,1,2.447,2.17,3.792,3.792,0,0,0,.961-3.943,3.87,3.87,0,0,0-7.425.272,3.771,3.771,0,0,0,1.053,3.67,2.787,2.787,0,0,1,.863-1.467A2.863,2.863,0,0,1,229.9,113.03Zm.192,3.313a4.072,4.072,0,0,0,1.555-.31.2.2,0,0,0,.14-.218,1.661,1.661,0,1,0-3.321.017.175.175,0,0,0,.123.19A3.926,3.926,0,0,0,230.1,116.343Zm.587-4.969a.552.552,0,1,0-.552.547A.558.558,0,0,0,230.683,111.374Z" transform="translate(0)"/>
    <path id="Path_489" data-name="Path 489" d="M411.056,298.522a6.351,6.351,0,0,1-1.267-.292,4.82,4.82,0,0,1-3.259-4.152,4.934,4.934,0,0,1,4.225-5.452,4.975,4.975,0,1,1,1.4,9.85.835.835,0,0,0-.288.047Zm3.117-2.241a3.819,3.819,0,0,0,.92-4.064,3.868,3.868,0,0,0-7.342.235,3.789,3.789,0,0,0,1,3.82,2.838,2.838,0,0,1,2.487-2.178,1.681,1.681,0,0,1-1.425-1.828,1.658,1.658,0,0,1,3.293-.027,1.7,1.7,0,0,1-1.4,1.86A2.829,2.829,0,0,1,414.172,296.281Zm-2.843,1.135a4.258,4.258,0,0,0,1.635-.3.219.219,0,0,0,.156-.245,1.66,1.66,0,1,0-3.32.037.175.175,0,0,0,.124.19A3.832,3.832,0,0,0,411.33,297.417Zm.683-4.966a.552.552,0,1,0-.554.545A.559.559,0,0,0,412.013,292.451Z" transform="translate(-171.281 -171.024)"/>
    <path id="Path_490" data-name="Path 490" d="M273.625,335.322c-.147-.139-.291-.281-.441-.416-.071-.064-.074-.107,0-.175q.312-.3.612-.612c.068-.071.108-.066.176,0q.849.857,1.706,1.706c.071.071.082.112,0,.189q-.858.848-1.706,1.706c-.076.076-.118.071-.189,0-.2-.2-.394-.4-.6-.6-.081-.076-.066-.122.007-.189.148-.134.289-.274.433-.412l-.025-.043c-.341,0-.682.005-1.023,0a7.766,7.766,0,0,1-1.176-.027,1.639,1.639,0,0,1-1.388-1.635c-.006-.866,0-1.731,0-2.6,0-.128.031-.169.162-.164.251.011.5.012.755,0,.149-.007.2.029.2.188-.009.829,0,1.658,0,2.486a.569.569,0,0,0,.644.645H273.6Z" transform="translate(-42.645 -212.366)"/>
    <path id="Path_491" data-name="Path 491" d="M447.928,149.835h1.821a1.66,1.66,0,0,1,1.763,1.766c0,.829,0,1.658,0,2.486,0,.14-.037.177-.174.171-.257-.011-.516-.01-.773,0-.128,0-.165-.03-.164-.162.006-.835,0-1.67,0-2.5a.572.572,0,0,0-.655-.652h-1.875c.168.168.3.313.447.445.09.081.088.133,0,.216-.2.184-.389.375-.573.573-.086.093-.134.078-.215,0q-.835-.845-1.68-1.68c-.079-.078-.085-.121,0-.2q.852-.841,1.693-1.693c.084-.085.128-.073.2.006q.279.294.573.573c.084.079.1.132,0,.215-.148.127-.285.266-.427.4Z" transform="translate(-208.642 -39.018)"/>
  </g>
</svg>
