<svg id="Profile" xmlns="http://www.w3.org/2000/svg" xmlns:xlink="http://www.w3.org/1999/xlink" width="24" height="24" viewBox="0 0 24 24">
  <defs>
    <linearGradient id="linear-gradient" x1="0.5" x2="0.5" y2="1" gradientUnits="objectBoundingBox">
      <stop offset="0" stop-color="#10c4d3"/>
      <stop offset="1" stop-color="#4fe6af"/>
    </linearGradient>
  </defs>
  <rect id="Rectangle_170" data-name="Rectangle 170" width="24" height="24" fill="none"/>
  <g id="Profile-2" data-name="Profile" transform="translate(2 2)">
    <rect id="Rectangle_135" data-name="Rectangle 135" width="20" height="6.698" rx="3.349" transform="translate(0 13.304)" fill="url(#linear-gradient)"/>
    <path id="Path_193" data-name="Path 193" d="M222.9,150.621c-1.085-1.3-2.44-2.419-3.921-2.419h-.136v.01c-1.418.063-2.732,1.147-3.775,2.409a4.979,4.979,0,0,0-1.147,2.93,5.072,5.072,0,1,0,10.136.271A5,5,0,0,0,222.9,150.621Z" transform="translate(-208.978 -148.202)" fill="url(#linear-gradient)"/>
    <path id="Path_194" data-name="Path 194" d="M218.285,148.289a.528.528,0,0,1,.651.408c.213,1.169.657,4.1-.094,4.855-.687.687-3.36.289-4.452.091a.51.51,0,0,1-.422-.566,4.991,4.991,0,0,1,1.1-2.455,6.423,6.423,0,0,1,3.218-2.332Z" transform="translate(-208.978 -148.202)" fill="#334f65"/>
  </g>
</svg>
