<svg xmlns="http://www.w3.org/2000/svg" width="15.001" height="15" viewBox="0 0 15.001 15">
  <g id="Group_22334" data-name="Group 22334" transform="translate(-822.23 -682.214)">
    <g id="Group_22324" data-name="Group 22324" transform="translate(822.23 682.214)">
      <path id="Path_120" data-name="Path 120" d="M860.949,727.495a4.26,4.26,0,1,0,4.241,4.275A4.274,4.274,0,0,0,860.949,727.495Z" transform="translate(-853.43 -724.254)" fill="#ccd3d8"/>
      <path id="Path_121" data-name="Path 121" d="M844.1,741.924c-.221,0-.442.009-.663,0a.434.434,0,0,1-.444-.5.411.411,0,0,1,.412-.406q.709-.021,1.42,0a.444.444,0,0,1,.408.46.456.456,0,0,1-.43.442c-.234.012-.469,0-.7,0Z" transform="translate(-842.987 -733.968)" fill="#ccd3d8"/>
      <path id="Path_122" data-name="Path 122" d="M892.875,741.922c-.212,0-.424,0-.636,0a.469.469,0,0,1-.484-.46.464.464,0,0,1,.476-.454q.649-.009,1.3,0a.433.433,0,0,1,.462.371.438.438,0,0,1-.44.539c-.225.011-.451,0-.676,0Z" transform="translate(-878.997 -733.964)" fill="#ccd3d8"/>
      <path id="Path_123" data-name="Path 123" d="M871.071,714.953c0,.212,0,.424,0,.636a.458.458,0,1,1-.915.006c-.005-.428-.007-.857,0-1.284a.456.456,0,1,1,.912-.02c.009.221,0,.442,0,.663Z" transform="translate(-863.113 -713.836)" fill="#ccd3d8"/>
      <path id="Path_124" data-name="Path 124" d="M871.071,763.724c0,.221.006.442,0,.662a.438.438,0,0,1-.407.458.425.425,0,0,1-.5-.426c-.014-.464-.012-.928,0-1.392a.447.447,0,0,1,.449-.422.454.454,0,0,1,.456.43c.012.229,0,.46,0,.689Z" transform="translate(-863.114 -749.847)" fill="#ccd3d8"/>
      <path id="Path_125" data-name="Path 125" d="M852.769,723.154a.422.422,0,0,1-.261.427.414.414,0,0,1-.479-.072c-.335-.327-.668-.656-.993-.994a.446.446,0,0,1,.63-.629c.338.325.665.66,1,.992A.37.37,0,0,1,852.769,723.154Z" transform="translate(-849.034 -719.883)" fill="#ccd3d8"/>
      <path id="Path_126" data-name="Path 126" d="M885.9,723.617a.422.422,0,0,1-.42-.256.411.411,0,0,1,.066-.479c.33-.339.662-.675,1-1a.445.445,0,0,1,.627.63c-.327.341-.666.672-1,1A.365.365,0,0,1,885.9,723.617Z" transform="translate(-874.171 -719.882)" fill="#ccd3d8"/>
      <path id="Path_127" data-name="Path 127" d="M852.771,756.764a.392.392,0,0,1-.123.291c-.318.319-.634.64-.956.954a.448.448,0,1,1-.637-.629c.317-.326.64-.646.965-.965a.445.445,0,0,1,.752.348Z" transform="translate(-849.037 -745.032)" fill="#ccd3d8"/>
      <path id="Path_128" data-name="Path 128" d="M885.913,756.312a.4.4,0,0,1,.3.127c.315.315.633.628.945.947a.448.448,0,1,1-.628.639c-.323-.314-.64-.634-.956-.955a.454.454,0,0,1-.088-.5A.446.446,0,0,1,885.913,756.312Z" transform="translate(-874.185 -745.047)" fill="#ccd3d8"/>
    </g>
  </g>
</svg>
