<svg xmlns="http://www.w3.org/2000/svg" width="30.12" height="30.118" viewBox="0 0 30.12 30.118">
  <g id="Group_22518" data-name="Group 22518" transform="translate(-822.23 -682.214)">
    <g id="Group_22324" data-name="Group 22324" transform="translate(822.23 682.214)">
      <path id="Path_120" data-name="Path 120" d="M865.252,727.5a8.553,8.553,0,1,0,8.516,8.583A8.582,8.582,0,0,0,865.252,727.5Z" transform="translate(-850.156 -720.989)" fill="#4fe6af"/>
      <path id="Path_121" data-name="Path 121" d="M845.213,742.848c-.443,0-.888.017-1.33,0a.871.871,0,0,1-.892-1,.825.825,0,0,1,.827-.815q1.424-.041,2.851,0a.891.891,0,0,1,.82.924.915.915,0,0,1-.863.888c-.469.023-.941.005-1.412.005Z" transform="translate(-842.987 -726.872)" fill="#b8f5df"/>
      <path id="Path_122" data-name="Path 122" d="M894,742.849c-.426,0-.851.008-1.276,0a.942.942,0,0,1-.972-.924.931.931,0,0,1,.955-.911q1.3-.018,2.607,0a.87.87,0,0,1,.927.746.88.88,0,0,1-.884,1.081c-.452.022-.9,0-1.358,0Z" transform="translate(-866.139 -726.87)" fill="#b8f5df"/>
      <path id="Path_123" data-name="Path 123" d="M872,716.079c0,.425.007.851,0,1.276a.92.92,0,1,1-1.836.013c-.011-.859-.014-1.72,0-2.579a.915.915,0,1,1,1.83-.04c.018.443,0,.887,0,1.33Z" transform="translate(-856.019 -713.837)" fill="#b8f5df"/>
      <path id="Path_124" data-name="Path 124" d="M872,764.852c0,.443.013.888,0,1.33a.88.88,0,0,1-.818.92.853.853,0,0,1-1-.855c-.029-.931-.024-1.864,0-2.8a.9.9,0,0,1,.9-.847.913.913,0,0,1,.915.863c.024.46.005.923.005,1.384Z" transform="translate(-856.019 -736.989)" fill="#b8f5df"/>
      <path id="Path_125" data-name="Path 125" d="M854.638,724.554a.848.848,0,0,1-.524.858.831.831,0,0,1-.962-.144c-.673-.657-1.342-1.318-1.993-2a.895.895,0,0,1,1.265-1.263c.678.652,1.336,1.325,2,1.992A.743.743,0,0,1,854.638,724.554Z" transform="translate(-847.138 -717.988)" fill="#b8f5df"/>
      <path id="Path_126" data-name="Path 126" d="M886.366,725.487a.848.848,0,0,1-.842-.514.825.825,0,0,1,.132-.963c.662-.681,1.33-1.356,2.016-2.012a.893.893,0,0,1,1.258,1.265c-.657.685-1.337,1.349-2.011,2.017A.733.733,0,0,1,886.366,725.487Z" transform="translate(-862.826 -717.987)" fill="#b8f5df"/>
      <path id="Path_127" data-name="Path 127" d="M854.639,757.24a.787.787,0,0,1-.247.585c-.639.64-1.273,1.285-1.92,1.916a.9.9,0,1,1-1.279-1.262c.637-.655,1.286-1.3,1.937-1.938a.894.894,0,0,1,1.51.7Z" transform="translate(-847.14 -733.683)" fill="#b8f5df"/>
      <path id="Path_128" data-name="Path 128" d="M886.383,756.312a.8.8,0,0,1,.6.256c.633.633,1.271,1.261,1.9,1.9a.9.9,0,1,1-1.261,1.283c-.648-.631-1.284-1.273-1.919-1.918a.911.911,0,0,1-.177-1.007A.9.9,0,0,1,886.383,756.312Z" transform="translate(-862.835 -733.693)" fill="#b8f5df"/>
    </g>
  </g>
</svg>
