<svg xmlns="http://www.w3.org/2000/svg" xmlns:xlink="http://www.w3.org/1999/xlink" width="162.558" height="149.368" viewBox="0 0 162.558 149.368">
  <defs>
    <linearGradient id="linear-gradient" x1="0.5" x2="0.5" y2="1" gradientUnits="objectBoundingBox">
      <stop offset="0" stop-color="#0c80e3"/>
      <stop offset="1" stop-color="#3c99e8"/>
    </linearGradient>
  </defs>
  <g id="Group_22607" data-name="Group 22607" transform="translate(-102 -157)">
    <g id="Group_22604" data-name="Group 22604">
      <path id="Path_474" data-name="Path 474" d="M86.082,11.37c32.512,43.986,69.485,21.393,69.485,65.023s-44.623,4.463-77.772,51.636S-6.991,104.087-6.991,60.456,53.57-32.616,86.082,11.37Z" transform="translate(108.991 162.786)" fill="#fff"/>
      <g id="Group_22603" data-name="Group 22603" transform="translate(74.466 -66.31)">
        <g id="Group_22602" data-name="Group 22602" transform="translate(63.534 250.31)">
          <g id="Group_22601" data-name="Group 22601">
            <g id="Group_22600" data-name="Group 22600" transform="translate(0 1.376)">
              <path id="Path_459" data-name="Path 459" d="M87.294,300.888s11.224-12.025,16.492-22.79c0-5.383-2.061-21.187,2.52-24.967s13.285,4.7,16.339,13.094c4.749,13.059-1.336,26.646-2.367,28.822,9.505,0,24.508-1.031,25.081,15.461s-14.545,32.64-15.919,33.327-23.821,3.779-38.938-3.092c-2.52.458-5.269-.114-7.33,0s-11.453,4.467-14.43,1.26-5.154-6.3-4.466-22.9,3.321-18.9,9.505-20.042S85.806,300.086,86.836,301Z" transform="translate(-63.702 -252.205)" fill="#b8f5df"/>
              <path id="Path_460" data-name="Path 460" d="M133.929,362.861c-1.491.746-25.844,4.1-42.246-3.355-2.734.5-5.716-.124-7.952,0s-12.426,4.846-15.656,1.366a14.3,14.3,0,0,1-3.813-6.606c.233,9.94,2.132,12.493,4.569,15.117,2.978,3.206,12.369-1.145,14.43-1.26s4.81.458,7.329,0c15.118,6.872,37.564,3.779,38.939,3.092.938-.469,8.275-8.142,12.659-18.208C138.353,358.723,134.605,362.523,133.929,362.861Z" transform="translate(-63.733 -279.816)" fill="#4fe6af" opacity="0.72"/>
              <g id="Group_22599" data-name="Group 22599" transform="translate(49.425 41.674)">
                <path id="Path_461" data-name="Path 461" d="M147.1,372.478c5.259,1.228,16.263,2.52,21.531-1.718,4.009-3.321,1.947-9.963-.916-10.078s-22.447-2.061-25.425,2.061C140.114,366.066,140.786,371,147.1,372.478Z" transform="translate(-134.223 -323.439)" fill="#b8f5df"/>
                <path id="Path_462" data-name="Path 462" d="M138.109,345.138s-4.123,1.145-3.321,6.986c.4,2.892,3.124,4.464,6.5,5.273a38.718,38.718,0,0,0,10.565.683c5.955-.343,16.148-.115,18.095-4.466s.229-9.048-1.26-9.964S145.1,341.472,138.109,345.138Z" transform="translate(-132.448 -318.659)" fill="#b8f5df"/>
                <path id="Path_463" data-name="Path 463" d="M131.654,334.284s-1.26-6.986,8.818-7.788,20.271-.687,28.975,1.6c5.039,1.833,5.039,11.224-.343,12.712s-31.079,1.78-34.472-1.145C131.311,336.8,131.654,334.284,131.654,334.284Z" transform="translate(-131.604 -314.104)" fill="#b8f5df"/>
                <path id="Path_464" data-name="Path 464" d="M168.093,323.824c.411-.045,3.092.229,4.237-4.009s.573-7.444-4.123-8.818-24.165-3.206-29.433,2.634c-3.321,4.237.687,8.7,4.123,9.276S161.794,324.511,168.093,323.824Z" transform="translate(-133.227 -309.6)" fill="#b8f5df"/>
                <path id="Path_465" data-name="Path 465" d="M168.815,321.34c-6.179.674-21.346-.338-24.717-.9a6.728,6.728,0,0,1-5.131-4.731c-2.62,4.009,1.139,8.085,4.382,8.626,3.371.561,18.538,1.573,24.717.9.4-.044,3.034.224,4.157-3.932a12.818,12.818,0,0,0,.489-3.082C171.487,321.526,169.189,321.3,168.815,321.34Z" transform="translate(-133.38 -311.273)" fill="#4fe6af" opacity="0.72"/>
                <path id="Path_466" data-name="Path 466" d="M169.783,338.316c-5.311,1.469-30.669,1.756-34.017-1.13-3.278-2.825-2.938-5.311-2.938-5.311l0-.013a6.148,6.148,0,0,0-.751,3.78s-.339,2.486,2.938,5.311c3.349,2.887,28.706,2.6,34.018,1.131,2.8-.775,4.126-3.723,4.02-6.6A5.16,5.16,0,0,1,169.783,338.316Z" transform="translate(-131.719 -315.697)" fill="#4fe6af" opacity="0.72"/>
                <path id="Path_467" data-name="Path 467" d="M170.356,348.936a9.766,9.766,0,0,1-.764,2.76c-1.914,4.279-11.934,4.053-17.788,4.391a38.056,38.056,0,0,1-10.386-.671c-3.077-.738-5.6-2.122-6.265-4.586a8.979,8.979,0,0,0-.012,2.779c.39,2.843,3.071,4.388,6.389,5.184a38.084,38.084,0,0,0,10.386.67c5.854-.338,15.874-.113,17.788-4.391A10.208,10.208,0,0,0,170.356,348.936Z" transform="translate(-132.545 -320.374)" fill="#4fe6af" opacity="0.72"/>
                <path id="Path_468" data-name="Path 468" d="M168.675,369.209c-5.191,4.176-16.034,2.9-21.216,1.693-3.541-.826-5.279-2.76-5.726-4.876-.956,3.059.361,6.653,5.557,7.866s16.025,2.482,21.216-1.693a6.378,6.378,0,0,0,2.112-5.987A5.944,5.944,0,0,1,168.675,369.209Z" transform="translate(-134.299 -325.056)" fill="#4fe6af" opacity="0.72"/>
              </g>
              <path id="Path_469" data-name="Path 469" d="M135.972,294.969a.443.443,0,0,1-.074-.169h-.019l.015-.03a.446.446,0,0,1,.222-.483c1.468-3.255,6.493-15.8,2.1-27.893-3.01-8.277-11.588-16.63-16.1-12.9-.088.073-.169.158-.253.239a30.808,30.808,0,0,1,6.745,10.613c4.887,13.439-.886,27.389-2.369,30.628Z" transform="translate(-79.509 -252.307)" fill="#72ebbf" opacity="0.72"/>
              <rect id="Rectangle_1052" data-name="Rectangle 1052" width="22.676" height="52.222" transform="translate(0 42.042)" fill="#6db3ee"/>
              <rect id="Rectangle_1053" data-name="Rectangle 1053" width="6.297" height="51.469" transform="translate(15.976 42.241)" fill="#0c80e3"/>
            </g>
            <path id="Path_470" data-name="Path 470" d="M158.734,288.629a19.022,19.022,0,0,0-6.64-6.634,19.171,19.171,0,0,0,6.635-6.631,23.585,23.585,0,0,0,2.915,3.723,22.726,22.726,0,0,0,3.7,2.894,24.316,24.316,0,0,0-3.682,2.892A22.324,22.324,0,0,0,158.734,288.629Z" transform="translate(-87.792 -257.173)" fill="url(#linear-gradient)"/>
            <path id="Path_471" data-name="Path 471" d="M168.555,267.145a12.292,12.292,0,0,0-4.288-4.284,12.379,12.379,0,0,0,4.285-4.283,15.286,15.286,0,0,0,1.882,2.4,14.732,14.732,0,0,0,2.392,1.869,15.738,15.738,0,0,0-2.378,1.868A14.47,14.47,0,0,0,168.555,267.145Z" transform="translate(-91.126 -252.575)" fill="#6fdbe4"/>
            <path id="Path_472" data-name="Path 472" d="M174.885,299.681a11.846,11.846,0,0,0-4.134-4.13,11.937,11.937,0,0,0,4.131-4.129,14.709,14.709,0,0,0,1.814,2.318,14.216,14.216,0,0,0,2.305,1.8,15.131,15.131,0,0,0-2.292,1.8A13.929,13.929,0,0,0,174.885,299.681Z" transform="translate(-92.902 -261.571)" fill="#6fdbe4"/>
            <path id="Path_473" data-name="Path 473" d="M154.509,256.543a8.944,8.944,0,0,0-3.12-3.117,9.005,9.005,0,0,0,3.117-3.116,11.091,11.091,0,0,0,1.37,1.749,10.685,10.685,0,0,0,1.74,1.36,11.439,11.439,0,0,0-1.73,1.359A10.478,10.478,0,0,0,154.509,256.543Z" transform="translate(-87.598 -250.31)" fill="#4fe6af"/>
          </g>
        </g>
      </g>
    </g>
  </g>
</svg>
